<?xml version="1.0" encoding="UTF-8"?>
<svg width="1272px" height="964px" viewBox="0 0 1272 964" version="1.1" xmlns="http://www.w3.org/2000/svg" xmlns:xlink="http://www.w3.org/1999/xlink">
    <!-- Generator: Sketch 53.2 (72643) - https://sketchapp.com -->
    <title>Group 208</title>
    <desc>Created with Sketch.</desc>
    <defs>
        <polygon id="path-1" points="0 0.378056969 89.4842281 0.378056969 89.4842281 284.123086 0 284.123086"></polygon>
        <polygon id="path-3" points="0.0597815008 0.557156053 56.1129765 0.557156053 56.1129765 189.208192 0.0597815008 189.208192"></polygon>
        <polygon id="path-5" points="0 0.0571955357 38.6758658 0.0571955357 38.6758658 178.375103 0 178.375103"></polygon>
        <polygon id="path-7" points="0 0.312641345 62.9756757 0.312641345 62.9756757 122.239742 0 122.239742"></polygon>
        <polygon id="path-9" points="0.635435322 0.8042047 162.7152 0.8042047 162.7152 142.946638 0.635435322 142.946638"></polygon>
        <polygon id="path-11" points="0.636045092 0.0206143555 162.7152 0.0206143555 162.7152 223.919875 0.636045092 223.919875"></polygon>
        <polygon id="path-13" points="0.597379335 0.823257794 87.6463388 0.823257794 87.6463388 142.946638 0.597379335 142.946638"></polygon>
        <polygon id="path-15" points="0.129605371 0.722276395 17.8303339 0.722276395 17.8303339 274.839142 0.129605371 274.839142"></polygon>
        <polygon id="path-17" points="0.434162448 0.835160626 85.8102169 0.835160626 85.8102169 191.988503 0.434162448 191.988503"></polygon>
        <polygon id="path-19" points="0 0.0485524196 27.3831065 0.0485524196 27.3831065 42.1939966 0 42.1939966"></polygon>
        <polygon id="path-21" points="0.502155798 0.0560661519 162.7152 0.0560661519 162.7152 293.93099 0.502155798 293.93099"></polygon>
        <polygon id="path-23" points="0 0.0218564973 226.565462 0.0218564973 226.565462 135.971769 0 135.971769"></polygon>
    </defs>
    <g id="recruiter_end" stroke="none" stroke-width="1" fill="none" fill-rule="evenodd">
        <g id="Recruiter_log-in" transform="translate(0.000000, -60.000000)">
            <g id="backs-for-cards-2" transform="translate(587.500000, 554.000000) rotate(-90.000000) translate(-587.500000, -554.000000) translate(93.500000, -283.500000)">
                <g id="Group-208" transform="translate(0.000000, 4.800777)">
                    <g id="Group-4" transform="translate(0.000000, 571.592824)">
                        <mask id="mask-2" fill="white">
                            <use xlink:href="#path-1"></use>
                        </mask>
                        <g id="Clip-3"></g>
                        <path d="M-20.9619381,284.123086 C-21.2221614,284.123086 -21.4125687,284.02782 -21.5268131,283.977012 C-22.0028313,283.684865 -22.23132,283.278399 -22.23132,282.840177 L-22.23132,1.64826324 C-22.23132,1.07667042 -21.8187709,0.549534816 -21.247549,0.409812126 L-21.1650392,0.384408 L-20.9809788,0.378056969 C-20.5113075,0.378056969 -20.0733708,0.625747192 -19.8321882,1.03856423 L89.3536965,222.111615 C89.6583481,222.734016 89.4108187,223.508842 88.8078623,223.813692 L-20.3335941,283.951608 C-20.4922668,284.02782 -20.6953679,284.123086 -20.9619381,284.123086 L-20.9619381,284.123086 Z M-19.6798624,280.668125 L86.5356686,222.156073 L-19.6798624,7.12920332 L-19.6798624,280.668125 Z" id="Fill-2" fill="#F5CE4D" mask="url(#mask-2)"></path>
                    </g>
                    <path d="M664.675023,476.607604 C664.154577,476.607604 663.710293,476.283702 663.507192,475.769268 L591.165117,242.724523 C591.025485,242.222791 591.177811,241.689305 591.558625,241.359051 C591.837889,241.155818 592.110807,241.066904 592.396418,241.066904 C592.631253,241.066904 592.866089,241.130414 593.062843,241.257435 L737.67083,325.745205 C738.229358,326.075459 738.457847,326.748668 738.210317,327.358367 L665.861895,475.896289 C665.665141,476.328159 665.220858,476.607604 664.713105,476.607604 L664.675023,476.607604 Z M664.973328,471.895139 L735.366902,327.352016 L594.579754,245.112511 L664.973328,471.895139 Z" id="Fill-5" fill="#F5CE4D"></path>
                    <path d="M403.596169,519.938786 C403.272477,519.938786 402.967825,519.811765 402.745683,519.602181 L222.709247,375.19243 C222.315739,374.912985 222.131679,374.417604 222.245923,373.953979 C222.277658,373.611023 222.550575,373.236312 222.931389,373.03943 L398.791559,297.798762 C398.918497,297.735251 399.102557,297.690794 399.292964,297.690794 C399.553188,297.690794 399.800717,297.773358 400.010165,297.919431 C400.321164,298.090909 400.568693,298.516428 400.568693,298.941947 L404.878245,518.617772 C404.878245,519.119503 404.598981,519.589479 404.173738,519.799063 C403.996024,519.887978 403.792923,519.938786 403.596169,519.938786 L403.596169,519.938786 Z M402.276012,515.956689 L398.068011,300.891714 L225.939824,374.519221 L402.276012,515.956689 Z" id="Fill-7" fill="#F5CE4D"></path>
                    <g id="Group-11" transform="translate(930.958394, 546.188698)">
                        <mask id="mask-4" fill="white">
                            <use xlink:href="#path-3"></use>
                        </mask>
                        <g id="Clip-10"></g>
                        <path d="M1.33724319,189.208192 C1.03893844,189.208192 0.7469806,189.106576 0.512144947,188.916045 C0.150371104,188.604844 -0.00830163465,188.141219 0.0869020083,187.671242 L38.4349294,1.57967211 C38.53648,1.10969578 38.8728662,0.747686995 39.3425375,0.607964304 L39.444088,0.569858116 L39.6725768,0.557156053 C40.0597382,0.557156053 40.4088183,0.715931838 40.6500008,0.995377218 L157.026934,127.781017 C157.306198,128.066813 157.426789,128.517736 157.325239,128.943255 C157.28081,129.298913 156.982506,129.673624 156.550916,129.838751 L1.66093557,189.189139 L1.52130356,189.189139 L1.33724319,189.208192 Z M3.06360258,185.912007 L153.87252,128.130323 L40.4342059,4.55195479 L3.06360258,185.912007 Z" id="Fill-9" fill="#F5CE4D" mask="url(#mask-4)"></path>
                    </g>
                    <path d="M12.5294341,399.396846 C12.2755577,399.396846 12.0343752,399.314282 11.8312741,399.161858 C11.5012348,398.958625 11.2663991,398.55851 11.2663991,398.126639 L11.2663991,298.961635 C11.2663991,298.523414 11.5075817,298.091544 11.8820493,297.856556 C12.1613134,297.723184 12.3517206,297.678727 12.5421279,297.678727 C12.815045,297.678727 13.0689214,297.767642 13.2847163,297.926417 L98.5681397,353.986971 C98.9426074,354.190204 99.177443,354.672883 99.1266678,355.14921 C99.1330147,355.542974 98.8664445,355.968493 98.4348546,356.184428 L13.1133498,399.257123 C12.9292894,399.346037 12.7325352,399.396846 12.5294341,399.396846 L12.5294341,399.396846 Z M13.8178567,396.049852 L95.3185221,354.895169 L13.8178567,301.317868 L13.8178567,396.049852 Z" id="Fill-15" fill="#F5CE4D"></path>
                    <path d="M138.841819,1376.40141 L138.51178,1376.26803 L36.9675746,1341.5533 C36.5931069,1341.44533 36.2567207,1341.10237 36.1551702,1340.70861 C36.0726603,1340.36565 36.1234356,1339.99094 36.307496,1339.66069 L60.6859755,1307.61974 C60.8509951,1307.3657 61.1683406,1307.18152 61.5428083,1307.12436 L61.6126243,1307.12436 C62.0188265,1307.12436 62.2853967,1307.22597 62.5075385,1307.4038 L139.850978,1374.15949 C140.307956,1374.52785 140.441241,1375.20741 140.149283,1375.7409 C139.965222,1376.12831 139.514592,1376.40141 139.038574,1376.40141 L138.841819,1376.40141 Z M133.205764,1371.7715 L61.8855414,1310.24906 L39.46191,1339.7115 L133.205764,1371.7715 Z" id="Fill-19" fill="#F5CE4D"></path>
                    <g id="Group-23" transform="translate(0.000000, 1163.262662)">
                        <mask id="mask-6" fill="white">
                            <use xlink:href="#path-5"></use>
                        </mask>
                        <g id="Clip-22"></g>
                        <path d="M37.3934522,178.375103 C37.0253315,178.375103 36.6508638,178.190924 36.4096812,177.898776 L-104.916953,2.1339828 C-105.297768,1.59414513 -105.266033,0.920935803 -104.878872,0.476363607 C-104.624996,0.203269257 -104.294956,0.0571955357 -103.926835,0.0571955357 C-103.679306,0.0571955357 -103.431777,0.127056881 -103.215982,0.26042854 L-20.2428333,56.6575872 C-20.0333852,56.835416 -19.9064471,56.9560856 -19.8112434,57.1339145 L38.5422428,176.526953 C38.8405476,177.085844 38.6247527,177.841617 38.040837,178.184573 C37.8821642,178.267136 37.6727162,178.375103 37.3934522,178.375103 L37.3934522,178.375103 Z M31.2242561,167.39417 L-21.9628457,58.6010028 L-97.5862728,7.18305274 L31.2242561,167.39417 Z" id="Fill-21" fill="#F5CE4D" mask="url(#mask-6)"></path>
                    </g>
                    <g id="Group-26" transform="translate(0.000000, 1219.398024)">
                        <mask id="mask-8" fill="white">
                            <use xlink:href="#path-7"></use>
                        </mask>
                        <g id="Clip-25"></g>
                        <path d="M37.3318872,122.239742 C36.8304813,122.182582 36.4560137,121.909488 36.2529126,121.528426 L-22.0878799,2.15444044 C-22.360797,1.60825175 -22.2148181,0.947744483 -21.7197591,0.560331569 C-21.4722296,0.382502691 -21.2310471,0.312641345 -20.9708238,0.312641345 C-20.6217438,0.312641345 -20.2917045,0.446013004 -20.044175,0.700054259 L62.6306686,88.1220012 C63.0432177,88.5348182 63.093993,89.2207296 62.738566,89.7415142 L38.4045149,121.731659 C38.1315978,122.061913 37.7698239,122.239742 37.3953563,122.239742 L37.3318872,122.239742 Z M37.6365388,118.53709 L60.0347826,89.0746559 L-16.1217849,8.54992904 L37.6365388,118.53709 Z" id="Fill-24" fill="#F5CE4D" mask="url(#mask-8)"></path>
                    </g>
                    <path d="M139.034131,1376.40141 C138.704092,1376.40141 138.386746,1376.27439 138.177298,1376.0521 L60.8719399,1309.35992 C60.5926759,1309.13128 60.4276563,1308.78833 60.4276563,1308.42632 C60.376881,1308.16593 60.5101661,1307.77851 60.795777,1307.49907 L135.917798,1229.4957 C136.216103,1229.22261 136.527102,1229.10194 136.844447,1229.10194 L137.009467,1229.10194 L137.326812,1229.20355 C137.796483,1229.39408 138.101135,1229.85136 138.101135,1230.3912 L140.316207,1375.11215 C140.316207,1375.61388 140.030596,1376.0648 139.573618,1376.27439 C139.478415,1376.34425 139.26262,1376.40141 139.034131,1376.40141 L139.034131,1376.40141 Z M137.720321,1372.30499 L135.6068,1233.50955 L63.5566827,1308.312 L137.720321,1372.30499 Z" id="Fill-30" fill="#F5CE4D"></path>
                    <path d="M139.034131,1376.40141 C138.805642,1376.40141 138.589847,1376.3379 138.361358,1376.20452 C137.948809,1375.91238 137.745708,1375.53767 137.745708,1375.1439 L135.581412,1230.39755 C135.581412,1229.90852 135.822595,1229.483 136.235144,1229.26071 C136.469979,1229.14639 136.65404,1229.10194 136.844447,1229.10194 C137.123711,1229.10194 137.383934,1229.1845 137.593382,1229.34963 L280.506744,1327.092 C280.92564,1327.40955 281.116048,1327.89223 281.020844,1328.37491 C280.970069,1328.78772 280.646376,1329.18784 280.176705,1329.34661 L139.319742,1376.3633 L139.034131,1376.40141 Z M140.284472,1373.35926 L276.933434,1327.74616 L138.170951,1232.82999 L140.284472,1373.35926 Z" id="Fill-32" fill="#F5CE4D"></path>
                    <path d="M318.015076,1452.52677 L317.773893,1452.47597 L138.537168,1376.3017 C138.067497,1376.12387 137.750151,1375.64754 137.750151,1375.10135 C137.800926,1374.49165 138.1627,1374.05343 138.657759,1373.90101 L279.489335,1326.90337 L279.793986,1326.87162 C279.984394,1326.87162 280.168454,1326.91608 280.333474,1326.99864 C280.631778,1327.12566 280.898349,1327.41781 281.006246,1327.77982 L319.328886,1450.87551 C319.481212,1451.25022 319.392355,1451.7456 319.062316,1452.13301 L318.998847,1452.20922 L318.90999,1452.26638 C318.668807,1452.43786 318.402237,1452.52677 318.116626,1452.52677 L318.015076,1452.52677 Z M316.079268,1448.98925 L278.937154,1329.78039 L142.630924,1375.26648 L316.079268,1448.98925 Z" id="Fill-34" fill="#F5CE4D"></path>
                    <path d="M403.596169,1511.75141 C402.974172,1511.75141 402.434685,1511.28779 402.339481,1510.68444 C402.206196,1510.11285 402.561623,1509.47139 403.189967,1509.25546 L527.272048,1466.62098 L527.544965,1466.58923 C527.627475,1466.58923 527.703638,1466.59558 527.805189,1466.61463 L694.970092,1494.15905 C695.63017,1494.31148 696.055413,1494.83862 696.055413,1495.46102 C695.991944,1496.18503 695.44611,1496.70582 694.786031,1496.70582 L403.659638,1511.75141 L403.596169,1511.75141 Z M412.58974,1508.71562 L682.89827,1494.75605 L527.684597,1469.1614 L412.58974,1508.71562 Z" id="Fill-38" fill="#F5CE4D"></path>
                    <path d="M527.581143,1469.14869 C527.308226,1469.14869 527.098778,1469.04708 526.984533,1468.99627 L279.137716,1329.24817 C278.674392,1329.02589 278.414168,1328.4797 278.522066,1327.90176 C278.604576,1327.37462 279.080594,1326.9364 279.632775,1326.88559 C279.632775,1326.88559 541.563384,1301.48146 541.582425,1301.48146 C542.001321,1301.48146 542.274238,1301.57673 542.521768,1301.79267 C542.864501,1302.17373 542.978745,1302.54209 542.92797,1302.89774 L528.844178,1467.9674 C528.850525,1468.33576 528.596648,1468.76128 528.196793,1468.98992 C527.987345,1469.09153 527.790591,1469.14869 527.581143,1469.14869 L527.581143,1469.14869 Z M526.464087,1465.7763 L540.274962,1304.16795 L283.923286,1329.03224 L526.464087,1465.7763 Z" id="Fill-40" fill="#F5CE4D"></path>
                    <path d="M403.596169,1511.75141 C403.329599,1511.75141 403.069376,1511.65615 402.847234,1511.49102 L317.405138,1452.31211 C316.910079,1451.9628 316.719671,1451.35945 316.922772,1450.81962 C317.100486,1450.31789 317.582851,1449.97493 318.109645,1449.97493 L527.684597,1466.58923 C528.255819,1466.63368 528.72549,1467.06555 528.833388,1467.6689 C528.928592,1468.25955 528.585858,1468.84384 528.00829,1469.05978 L403.88178,1511.71331 L403.596169,1511.75141 Z M403.792923,1509.05857 L521.356729,1468.65331 L322.742889,1452.90911 L403.792923,1509.05857 Z" id="Fill-42" fill="#F5CE4D"></path>
                    <path d="M318.018249,1452.52042 C317.491456,1452.47597 317.047172,1452.10761 316.90754,1451.61223 L278.546819,1328.52924 C278.426227,1327.9767 278.591247,1327.47497 278.946674,1327.16377 C279.219591,1326.96053 279.486161,1326.87162 279.765425,1326.87162 C279.974873,1326.87162 280.184321,1326.92878 280.374729,1327.02404 L528.215199,1466.75308 C528.735646,1467.06428 528.964134,1467.64223 528.824502,1468.21382 C528.589667,1468.80447 528.107301,1469.14742 527.580508,1469.14742 L318.018249,1452.52042 Z M521.912718,1466.13068 L281.936068,1330.84101 L319.097224,1450.03717 L521.912718,1466.13068 Z" id="Fill-44" fill="#F5CE4D"></path>
                    <g id="Group-48" transform="translate(824.356170, 1201.507175)">
                        <mask id="mask-10" fill="white">
                            <use xlink:href="#path-9"></use>
                        </mask>
                        <g id="Clip-47"></g>
                        <path d="M76.9145037,142.946638 C76.4384855,142.89583 76.1147931,142.698948 75.9243858,142.4068 L0.91660899,51.7839336 C0.637344971,51.3901696 0.567528966,50.9646505 0.700814066,50.5581845 C0.865833714,50.1390164 1.1895261,49.840518 1.5893814,49.7389015 L213.779261,0.823257794 L213.976015,0.8042047 C214.432993,0.8042047 214.839195,1.04554389 215.080377,1.4520099 C215.353294,1.97279447 215.270785,2.55708936 214.915358,2.95720434 L77.8601933,142.552874 C77.6126638,142.813266 77.2762776,142.946638 76.9398914,142.946638 L76.9145037,142.946638 Z M77.0224012,139.75842 L210.009197,4.31632505 L4.20430813,51.7394763 L77.0224012,139.75842 Z" id="Fill-46" fill="#F5CE4D" mask="url(#mask-10)"></path>
                    </g>
                    <g id="Group-51" transform="translate(824.356170, 1029.827238)">
                        <mask id="mask-12" fill="white">
                            <use xlink:href="#path-11"></use>
                        </mask>
                        <g id="Clip-50"></g>
                        <path d="M1.90736157,223.919875 C1.3932619,223.919875 0.942631319,223.627727 0.752224033,223.176804 C0.504694562,222.656019 0.6633673,222.001863 1.1266917,221.652556 L274.430963,0.31911283 C274.627717,0.141283952 274.926022,0.0206143555 275.237021,0.0206143555 C275.490897,0.0206143555 275.738426,0.096826732 275.947874,0.230198391 C276.44928,0.579505117 276.646035,1.17650207 276.44928,1.7290418 L215.163522,174.204001 C215.087359,174.56601 214.731932,174.908965 214.255914,175.010582 L2.11680958,223.900821 L1.90736157,223.919875 Z M7.00392992,220.166415 L213.005573,172.679753 L272.520543,5.13954564 L7.00392992,220.166415 Z" id="Fill-49" fill="#F5CE4D" mask="url(#mask-12)"></path>
                    </g>
                    <g id="Group-54" transform="translate(899.425032, 1201.507175)">
                        <mask id="mask-14" fill="white">
                            <use xlink:href="#path-13"></use>
                        </mask>
                        <g id="Clip-53"></g>
                        <path d="M1.86722175,142.946638 C1.499101,142.946638 1.13098024,142.768809 0.889797681,142.483013 C0.470901652,141.955877 0.508983109,141.225508 0.959613686,140.761883 L137.995737,1.19161761 C138.23692,0.950278422 138.579653,0.823257794 138.93508,0.823257794 C139.296854,0.823257794 139.652281,0.98838461 139.893463,1.28053205 L169.850876,39.3676672 C170.079365,39.6280595 170.174569,39.9900683 170.13014,40.3520771 C170.034937,40.7585431 169.831836,41.0570416 169.546225,41.2348704 L2.54634107,142.756107 C2.28611778,142.89583 2.07666976,142.946638 1.86722175,142.946638 L1.86722175,142.946638 Z M9.94049067,135.274592 L166.956686,39.8122394 L138.789101,4.02417761 L9.94049067,135.274592 Z" id="Fill-52" fill="#F5CE4D" mask="url(#mask-14)"></path>
                    </g>
                    <path d="M737.047563,328.105883 C736.895237,328.105883 736.60328,328.105883 736.324016,327.889948 L591.741416,243.433933 C591.474846,243.306912 591.240011,243.014765 591.151154,242.652756 C591.081338,242.233588 591.151154,241.909686 591.328867,241.63024 L640.200071,171.356078 C640.358743,171.00042 640.809374,170.886102 640.999781,170.828942 L641.101332,170.797187 L641.240964,170.790836 C641.691594,170.790836 642.104144,171.032175 642.326285,171.419588 L738.113844,326.181521 C738.43119,326.632444 738.374067,327.261196 737.974212,327.712119 C737.713989,327.972512 737.390296,328.105883 737.047563,328.105883 L737.047563,328.105883 Z M733.258458,323.152079 L641.164801,174.391871 L594.223058,241.93509 L733.258458,323.152079 Z" id="Fill-55" fill="#F5CE4D"></path>
                    <g id="Group-59" transform="translate(969.241037, 401.277222)">
                        <mask id="mask-16" fill="white">
                            <use xlink:href="#path-15"></use>
                        </mask>
                        <g id="Clip-58"></g>
                        <path d="M117.797333,274.839142 C117.47364,274.839142 117.137254,274.693068 116.896071,274.445378 L0.474709797,147.602579 C0.144670502,147.316783 0.0240792206,146.764243 0.233527235,146.237107 L67.9360112,1.4716981 C68.1645,0.995370744 68.6151305,0.722276395 69.1101895,0.722276395 C69.846431,0.83659496 70.2589801,1.25576303 70.3541838,1.7956007 L119.066714,273.340298 C119.174612,273.873785 118.895348,274.439027 118.387595,274.693068 C118.178147,274.788333 117.98774,274.839142 117.797333,274.839142 L117.797333,274.839142 Z M115.779015,269.453467 L68.5326207,6.19686544 L2.93096379,146.510202 L115.779015,269.453467 Z" id="Fill-57" fill="#F5CE4D" mask="url(#mask-16)"></path>
                    </g>
                    <path d="M737.047563,328.105883 C736.546157,328.105883 736.120915,327.851842 735.917813,327.439025 L640.155642,172.766007 C639.857338,172.245222 639.908113,171.635523 640.288927,171.203653 C640.561845,170.930559 640.87919,170.797187 641.215576,170.797187 C641.444065,170.797187 641.65986,170.867049 641.856614,170.981367 L913.256813,311.478883 C913.758219,311.726573 914.031136,312.285464 913.942279,312.844355 C913.789953,313.441352 913.332976,313.835116 912.799835,313.885924 L737.111032,328.105883 L737.047563,328.105883 Z M737.707642,325.501961 L908.14755,311.694818 L644.750805,175.344526 L737.707642,325.501961 Z" id="Fill-60" fill="#F5CE4D"></path>
                    <g id="Group-64" transform="translate(901.261154, 212.583798)">
                        <mask id="mask-18" fill="white">
                            <use xlink:href="#path-17"></use>
                        </mask>
                        <g id="Clip-63"></g>
                        <path d="M137.062781,191.988503 C136.783517,191.988503 136.5106,191.886886 136.275764,191.696356 L10.6767712,101.060787 C10.4038541,100.882958 10.200753,100.546353 10.1499777,100.184344 L0.43920614,2.23238753 C0.388430863,1.64174161 0.724817069,1.11460601 1.2769982,0.917724034 C1.40393639,0.866915783 1.56260913,0.835160626 1.72762877,0.835160626 C2.15287171,0.835160626 2.53368629,1.03839363 2.76217503,1.37499829 L138.103674,189.956173 C138.465448,190.476958 138.401979,191.16922 137.957695,191.60109 C137.722859,191.855131 137.399167,191.988503 137.062781,191.988503 L137.062781,191.988503 Z M131.471153,185.097634 L3.44129435,6.72256671 L12.6316194,99.3206042 L131.471153,185.097634 Z" id="Fill-62" fill="#F5CE4D" mask="url(#mask-18)"></path>
                    </g>
                    <g id="Group-70" transform="translate(0.000000, 853.160605)">
                        <mask id="mask-20" fill="white">
                            <use xlink:href="#path-19"></use>
                        </mask>
                        <g id="Clip-69"></g>
                        <polygon id="Fill-68" fill="#F5CE4D" mask="url(#mask-20)" points="-21.5261784 1.9475108 -19.8379004 0.0485524196 27.3831065 40.2061238 25.7392569 42.1939966"></polygon>
                    </g>
                    <polygon id="Fill-71" fill="#F5CE4D" points="805.558644 1388.66271 823.095155 1251.6138 825.608531 1251.98851 808.116448 1388.96756"></polygon>
                    <path d="M402.743779,520.810783 C402.16621,520.810783 401.652111,520.391615 401.556907,519.80732 C401.436316,519.146812 401.880599,518.51806 402.540678,518.410093 L663.303456,474.568923 C663.957188,474.473658 664.585532,474.905528 664.693429,475.566035 C664.807674,476.220191 664.36339,476.848944 663.709658,476.956911 L402.94688,520.79173 C402.877064,520.804432 402.807248,520.810783 402.743779,520.810783" id="Fill-73" fill="#F5CE4D"></path>
                    <path d="M664.972059,473.103105 C664.74357,473.103105 664.515081,473.033244 664.31198,472.906223 L398.128941,298.818102 C397.570413,298.449742 397.41174,297.700321 397.773514,297.135079 C398.141635,296.576188 398.89057,296.423763 399.449098,296.792123 L665.632137,470.880244 C666.190665,471.248604 666.349338,471.991675 665.987564,472.556917 C665.752729,472.906223 665.365567,473.103105 664.972059,473.103105" id="Fill-75" fill="#F5CE4D"></path>
                    <polygon id="Fill-79" fill="#F5CE4D" points="970.749023 548.518427 912.719229 312.190199 915.067586 311.612255 973.09738 547.946834"></polygon>
                    <g id="Group-83" transform="translate(824.356170, 957.843493)">
                        <mask id="mask-22" fill="white">
                            <use xlink:href="#path-21"></use>
                        </mask>
                        <g id="Clip-82"></g>
                        <polygon id="Fill-81" fill="#F5CE4D" mask="url(#mask-22)" points="2.67279886 293.93099 0.502155798 292.870368 143.770945 0.0560661519 144.888001 0.678467227 275.773969 73.505744 274.599791 75.6142864 144.824532 3.40941072"></polygon>
                    </g>
                    <path d="M138.20332,406.575416 C138.171586,406.422992 138.10177,406.143546 138.247749,405.819644 L186.661975,245.456101 C186.731791,245.170305 186.960279,244.878158 187.290319,244.700329 C187.683827,244.535202 188.013866,244.528851 188.318518,244.636818 L267.99762,275.839436 C268.384782,275.909297 268.606924,276.315763 268.708474,276.493592 L268.746556,276.588857 L268.790984,276.715878 C268.898881,277.16045 268.759249,277.617724 268.435557,277.922574 L140.323188,407.166062 C139.961414,407.572528 139.339417,407.674145 138.806277,407.381997 C138.488931,407.197818 138.28583,406.912021 138.20332,406.575416 L138.20332,406.575416 Z M142.138404,401.735931 L265.281143,277.484353 L188.70568,247.526538 L142.138404,401.735931 Z" id="Fill-84" fill="#F5CE4D"></path>
                    <path d="M761.645011,1323.57734 C761.683093,1323.90124 761.575195,1324.25055 761.353053,1324.51094 L647.038866,1453.27175 C646.797683,1453.62741 646.264543,1453.80524 645.712362,1453.64646 L494.916138,1400.93925 C494.427426,1400.74237 494.110081,1400.3232 494.059305,1399.83417 C494.103734,1399.09745 494.465508,1398.63383 495.004995,1398.48775 L760.026549,1322.45956 C760.546996,1322.31348 761.137258,1322.52942 761.44191,1323.00575 C761.568848,1323.20263 761.62597,1323.38681 761.645011,1323.57734 L761.645011,1323.57734 Z M756.504014,1326.13045 L499.555729,1399.85958 L645.699668,1450.94092 L756.504014,1326.13045 Z" id="Fill-86" fill="#F5CE4D"></path>
                    <path d="M710.990326,1449.20836 C710.584124,1449.20836 710.196963,1448.99878 709.981168,1448.65582 C709.739985,1448.28111 709.720944,1447.82384 709.917699,1447.44277 L738.09163,1393.24307 C738.250303,1392.92552 738.548607,1392.70323 738.891341,1392.62067 C739.246767,1392.54446 739.595847,1392.61432 739.887805,1392.83661 L804.677058,1441.40929 C805.089607,1441.71414 805.254627,1442.23493 805.108648,1442.72396 C804.962669,1443.21934 804.531079,1443.55594 804.029673,1443.5877 L711.066489,1449.20201 C711.041102,1449.20836 711.015714,1449.20836 710.990326,1449.20836 L710.990326,1449.20836 Z M739.57046,1395.61836 L713.046725,1446.6616 L800.589648,1441.37754 L739.57046,1395.61836 Z" id="Fill-88" fill="#F5CE4D"></path>
                    <path d="M334.34377,378.728049 C334.007384,378.728049 333.683691,378.594677 333.448856,378.334285 L267.936055,306.446961 C267.713913,306.205622 267.599669,305.88807 267.625057,305.557817 C267.644097,305.227563 267.796423,304.922714 268.043953,304.713129 L333.556753,248.538257 C333.918527,248.227056 334.42628,248.163546 334.851523,248.354077 C335.276765,248.550959 335.549683,248.982829 335.549683,249.452805 L335.549683,377.521353 C335.549683,378.023085 335.245031,378.467657 334.781707,378.651837 C334.635728,378.702645 334.489749,378.728049 334.34377,378.728049 L334.34377,378.728049 Z M270.563676,305.735646 L333.137857,374.396646 L333.137857,252.082132 L270.563676,305.735646 Z" id="Fill-90" fill="#F5CE4D"></path>
                    <path d="M969.394593,548.977607 C969.299389,548.977607 969.210532,548.964905 969.121676,548.945852 L665.580727,477.077581 C664.933343,476.918805 664.533487,476.271 664.685813,475.616843 C664.838139,474.969038 665.479177,474.562572 666.139255,474.721348 L965.288142,545.54805 L735.485589,328.768296 C735.003224,328.311022 734.977836,327.548898 735.441161,327.059868 C735.891791,326.570839 736.666114,326.551786 737.148479,327.00906 L970.219691,546.888118 C970.625893,547.262828 970.721097,547.859825 970.460874,548.342504 C970.245079,548.736268 969.83253,548.977607 969.394593,548.977607" id="Fill-92" fill="#F5CE4D"></path>
                    <path d="M403.596169,1504.22163 C400.156144,1504.22163 397.357157,1507.02243 397.357157,1510.46469 C397.357157,1513.9133 400.156144,1516.71411 403.596169,1516.71411 C407.036194,1516.71411 409.835181,1513.9133 409.835181,1510.46469 C409.835181,1507.02243 407.036194,1504.22163 403.596169,1504.22163" id="Fill-96" fill="#F5CE4D"></path>
                    <path d="M496.023039,1393.8045 C492.583014,1393.8045 489.784027,1396.59896 489.784027,1400.04122 C489.784027,1403.48983 492.583014,1406.29063 496.023039,1406.29063 C499.463064,1406.29063 502.262051,1403.48983 502.262051,1400.04122 C502.262051,1396.59896 499.463064,1393.8045 496.023039,1393.8045" id="Fill-98" fill="#F5CE4D"></path>
                    <path d="M711.315923,1441.75352 C707.875898,1441.75352 705.076911,1444.54797 705.076911,1447.99658 C705.076911,1451.43884 707.875898,1454.23965 711.315923,1454.23965 C714.755948,1454.23965 717.554935,1451.43884 717.554935,1447.99658 C717.554935,1444.54797 714.755948,1441.75352 711.315923,1441.75352" id="Fill-100" fill="#F5CE4D"></path>
                    <path d="M318.120434,1446.10715 C315.277019,1446.10715 312.966744,1448.39987 312.966744,1451.26419 C312.966744,1454.10945 315.277019,1456.41488 318.120434,1456.41488 C320.98289,1456.41488 323.274125,1454.10945 323.274125,1451.26419 C323.274125,1448.39987 320.98289,1446.10715 318.120434,1446.10715" id="Fill-102" fill="#F5CE4D"></path>
                    <path d="M279.772407,1322.74599 C276.770319,1322.74599 274.352146,1325.15938 274.352146,1328.14436 C274.352146,1331.14205 276.770319,1333.56179 279.772407,1333.56179 C282.768148,1333.56179 285.192668,1331.14205 285.192668,1328.14436 C285.192668,1325.15938 282.768148,1322.74599 279.772407,1322.74599" id="Fill-104" fill="#F5CE4D"></path>
                    <path d="M694.770164,1485.119 C689.070639,1485.119 684.456436,1489.7362 684.456436,1495.43942 C684.456436,1501.11724 689.070639,1505.7535 694.770164,1505.7535 C700.463342,1505.7535 705.077545,1501.11724 705.077545,1495.43942 C705.077545,1489.7362 700.463342,1485.119 694.770164,1485.119" id="Fill-112" fill="#F5CE4D"></path>
                    <path d="M901.292254,1334.44967 C896.481296,1334.44967 892.5716,1338.35555 892.5716,1343.16963 C892.5716,1347.97737 896.481296,1351.8896 901.292254,1351.8896 C906.109558,1351.8896 910.00656,1347.97737 910.00656,1343.16963 C910.00656,1338.35555 906.109558,1334.44967 901.292254,1334.44967" id="Fill-114" fill="#F5CE4D"></path>
                    <path d="M527.581143,1457.97215 C522.1228,1457.97215 517.699005,1462.39882 517.699005,1467.8607 C517.699005,1473.32259 522.1228,1477.75561 527.581143,1477.75561 C533.033138,1477.75561 537.463281,1473.32259 537.463281,1467.8607 C537.463281,1462.39882 533.033138,1457.97215 527.581143,1457.97215" id="Fill-116" fill="#F5CE4D"></path>
                    <path d="M541.672551,1294.01773 C536.842553,1294.01773 532.939204,1297.92997 532.939204,1302.75675 C532.939204,1307.57718 536.842553,1311.48307 541.672551,1311.48307 C546.483509,1311.48307 550.393205,1307.57718 550.393205,1302.75675 C550.393205,1297.92997 546.483509,1294.01773 541.672551,1294.01773" id="Fill-118" fill="#F5CE4D"></path>
                    <path d="M759.645735,1315.2975 C754.815737,1315.2975 750.912387,1319.19703 750.912387,1324.03017 C750.912387,1328.8506 754.815737,1332.75648 759.645735,1332.75648 C764.463039,1332.75648 768.366388,1328.8506 768.366388,1324.03017 C768.366388,1319.19703 764.463039,1315.2975 759.645735,1315.2975" id="Fill-120" fill="#F5CE4D"></path>
                    <path d="M592.385628,236.192487 C588.996378,236.192487 586.241819,238.955186 586.241819,242.340285 C586.241819,245.738087 588.996378,248.500786 592.385628,248.500786 C595.787571,248.500786 598.548477,245.738087 598.548477,242.340285 C598.548477,238.955186 595.787571,236.192487 592.385628,236.192487" id="Fill-122" fill="#F5CE4D"></path>
                    <path d="M334.334884,243.299926 C330.951981,243.299926 328.191076,246.062625 328.191076,249.447725 C328.191076,252.845526 330.951981,255.608225 334.334884,255.608225 C337.736828,255.608225 340.491386,252.845526 340.491386,249.447725 C340.491386,246.062625 337.736828,243.299926 334.334884,243.299926" id="Fill-124" fill="#F5CE4D"></path>
                    <path d="M826.263532,1242.91162 C820.982903,1242.91162 816.698739,1247.18586 816.698739,1252.48262 C816.698739,1257.76033 820.982903,1262.05363 826.263532,1262.05363 C831.544161,1262.05363 835.828325,1257.76033 835.828325,1252.48262 C835.828325,1247.18586 831.544161,1242.91162 826.263532,1242.91162" id="Fill-126" fill="#F5CE4D"></path>
                    <path d="M969.360319,952.370351 C964.809585,952.370351 961.128378,956.079353 961.128378,960.633043 C961.128378,965.186732 964.809585,968.895735 969.360319,968.895735 C973.911054,968.895735 977.617649,965.186732 977.617649,960.633043 C977.617649,956.079353 973.911054,952.370351 969.360319,952.370351" id="Fill-128" fill="#F5CE4D"></path>
                    <path d="M970.640491,538.877562 C965.588351,538.877562 961.507288,542.967626 961.507288,548.0421 C961.507288,553.078468 965.588351,557.187585 970.640491,557.187585 C975.692631,557.187585 979.805429,553.078468 979.805429,548.0421 C979.805429,542.967626 975.692631,538.877562 970.640491,538.877562" id="Fill-130" fill="#F5CE4D"></path>
                    <path d="M737.047563,319.084878 C732.757052,319.084878 729.297987,322.54619 729.297987,326.839488 C729.297987,331.132785 732.757052,334.594097 737.047563,334.594097 C741.312687,334.594097 744.771752,331.132785 744.771752,326.839488 C744.771752,322.54619 741.312687,319.084878 737.047563,319.084878" id="Fill-134" fill="#F5CE4D"></path>
                    <path d="M905.721127,312.600475 C905.721127,316.461902 908.83746,319.567557 912.683687,319.567557 C916.529914,319.567557 919.627206,316.461902 919.627206,312.600475 C919.627206,308.770803 916.529914,305.627043 912.683687,305.627043 C908.83746,305.627043 905.721127,308.770803 905.721127,312.600475" id="Fill-136" fill="#F5CE4D"></path>
                    <path d="M61.6964035,1300.00294 C57.0568126,1300.00294 53.3184829,1303.75005 53.3184829,1308.39901 C53.3184829,1313.03526 57.0568126,1316.78237 61.6964035,1316.78237 C66.3233005,1316.78237 70.1060586,1313.03526 70.1060586,1308.39901 C70.1060586,1303.75005 66.3233005,1300.00294 61.6964035,1300.00294" id="Fill-140" fill="#F5CE4D"></path>
                    <path d="M136.840004,1237.51578 C140.787782,1237.51578 143.986624,1234.33392 143.986624,1230.38992 C143.986624,1226.43958 140.787782,1223.25772 136.840004,1223.25772 C132.917614,1223.25772 129.712425,1226.43958 129.712425,1230.38992 C129.712425,1234.33392 132.917614,1237.51578 136.840004,1237.51578" id="Fill-142" fill="#F5CE4D"></path>
                    <path d="M139.034131,1366.53317 C134.305683,1366.53317 130.459456,1370.3819 130.459456,1375.11977 C130.459456,1379.87034 134.305683,1383.70636 139.034131,1383.70636 C143.787966,1383.70636 147.615153,1379.87034 147.615153,1375.11977 C147.615153,1370.3819 143.787966,1366.53317 139.034131,1366.53317" id="Fill-144" fill="#F5CE4D"></path>
                    <path d="M33.1511779,896.941725 C34.8458027,892.978681 32.998852,888.374183 29.0383805,886.678458 C25.0779089,884.982732 20.5017872,886.837234 18.8071623,890.800277 C17.1188844,894.763321 18.9467943,899.342414 22.9072659,901.031789 C26.8677374,902.733865 31.456553,900.904768 33.1511779,896.941725" id="Fill-146" fill="#F5CE4D"></path>
                    <path d="M808.549307,1397.43285 C813.722039,1396.53735 817.200145,1391.6026 816.311578,1386.43286 C815.410317,1381.25042 810.478768,1377.78911 805.306037,1378.6973 C800.139652,1379.5801 796.680587,1384.48309 797.575501,1389.66554 C798.470415,1394.84798 803.382923,1398.33469 808.549307,1397.43285" id="Fill-148" fill="#F5CE4D"></path>
                    <path d="M88.2277547,784.514497 C82.8265347,784.514497 78.4408202,788.884006 78.4408202,794.282383 C78.4408202,799.68076 82.8265347,804.031216 88.2277547,804.031216 C93.6035871,804.031216 97.9702609,799.68076 97.9702609,794.282383 C97.9702609,788.884006 93.6035871,784.514497 88.2277547,784.514497" id="Fill-150" fill="#F5CE4D"></path>
                    <path d="M406.698538,298.961635 C406.698538,294.871571 403.379105,291.569035 399.291695,291.569035 C395.223326,291.569035 391.878505,294.871571 391.878505,298.961635 C391.878505,303.058051 395.223326,306.360587 399.291695,306.360587 C403.379105,306.360587 406.698538,303.058051 406.698538,298.961635" id="Fill-152" fill="#F5CE4D"></path>
                    <path d="M664.715009,467.949243 C660.621252,467.949243 657.320859,471.258131 657.320859,475.348195 C657.320859,479.431908 660.621252,482.734444 664.715009,482.734444 C668.783378,482.734444 672.109158,479.431908 672.109158,475.348195 C672.109158,471.258131 668.783378,467.949243 664.715009,467.949243" id="Fill-154" fill="#F5CE4D"></path>
                    <path d="M403.596169,510.716453 C399.210455,510.716453 395.662532,514.285733 395.662532,518.655243 C395.662532,523.043805 399.210455,526.587681 403.596169,526.587681 C407.981884,526.587681 411.523459,523.043805 411.523459,518.655243 C411.523459,514.285733 407.981884,510.716453 403.596169,510.716453" id="Fill-156" fill="#F5CE4D"></path>
                    <path d="M932.295637,745.453114 C938.55369,745.453114 943.631218,740.378639 943.631218,734.129225 C943.631218,727.848055 938.55369,722.77358 932.295637,722.77358 C926.031237,722.77358 920.95371,727.848055 920.95371,734.129225 C920.95371,740.378639 926.031237,745.453114 932.295637,745.453114" id="Fill-158" fill="#F5CE4D"></path>
                    <path d="M266.250951,272.140595 C263.432923,272.140595 261.09726,274.458721 261.09726,277.297632 C261.09726,280.136543 263.432923,282.448319 266.250951,282.448319 C269.113407,282.448319 271.410988,280.136543 271.410988,277.297632 C271.410988,274.458721 269.113407,272.140595 266.250951,272.140595" id="Fill-162" fill="#F5CE4D"></path>
                    <path d="M223.505785,379.680069 C226.526913,379.680069 228.983167,377.22222 228.983167,374.20548 C228.983167,371.182389 226.526913,368.72454 223.505785,368.72454 C220.465615,368.72454 218.009361,371.182389 218.009361,374.20548 C218.009361,377.22222 220.465615,379.680069 223.505785,379.680069" id="Fill-164" fill="#F5CE4D"></path>
                    <path d="M37.3934522,1334.22611 C33.9851618,1334.22611 31.2559907,1336.96976 31.2559907,1340.34851 C31.2559907,1343.73361 33.9851618,1346.4709 37.3934522,1346.4709 C40.7700081,1346.4709 43.511873,1343.73361 43.511873,1340.34851 C43.511873,1336.96976 40.7700081,1334.22611 37.3934522,1334.22611" id="Fill-166" fill="#F5CE4D"></path>
                    <path d="M97.8655368,346.020873 C92.8895598,346.020873 88.8465784,350.06648 88.8465784,355.039337 C88.8465784,360.018546 92.8895598,364.0451 97.8655368,364.0451 C102.841514,364.0451 106.865455,360.018546 106.865455,355.039337 C106.865455,350.06648 102.841514,346.020873 97.8655368,346.020873" id="Fill-168" fill="#F5CE4D"></path>
                    <path d="M188.47973,237.113387 C183.510099,237.113387 179.460771,241.158994 179.460771,246.138202 C179.460771,251.11106 183.510099,255.137614 188.47973,255.137614 C193.462054,255.137614 197.479647,251.11106 197.479647,246.138202 C197.479647,241.158994 193.462054,237.113387 188.47973,237.113387" id="Fill-170" fill="#F5CE4D"></path>
                    <path d="M334.35329,368.506699 C329.377313,368.506699 325.334332,372.552306 325.334332,377.525164 C325.334332,382.504372 329.377313,386.530926 334.35329,386.530926 C339.32292,386.530926 343.353208,382.504372 343.353208,377.525164 C343.353208,372.552306 339.32292,368.506699 334.35329,368.506699" id="Fill-172" fill="#F5CE4D"></path>
                    <g id="Group-178" transform="translate(0.000000, 1027.772571)">
                        <mask id="mask-24" fill="white">
                            <use xlink:href="#path-23"></use>
                        </mask>
                        <g id="Clip-177"></g>
                        <path d="M226.542781,134.287242 C226.599903,134.604794 226.549128,134.922345 226.390455,135.208142 C226.085803,135.773383 225.470153,136.065531 224.841809,135.944861 L-14.2716608,86.692613 C-14.817495,86.5719434 -15.2554318,86.1591264 -15.3823699,85.6065866 C-15.5283489,85.0603979 -15.2998601,84.4824541 -14.8428826,84.1267963 L94.2541453,0.312235256 C94.8507548,-0.119634878 95.6631592,-0.0688266265 96.170912,0.458308978 L226.149272,133.518767 C226.371414,133.722 226.492005,134.007797 226.542781,134.287242 L226.542781,134.287242 Z M-10.5968002,84.5015072 L220.805174,132.159647 L95.0157745,3.37343238 L-10.5968002,84.5015072 Z" id="Fill-176" fill="#F5CE4D" mask="url(#mask-24)"></path>
                    </g>
                    <path d="M91.2958508,1025.57488 C87.7542753,1028.03908 86.8720548,1032.91032 89.3283088,1036.4542 C91.7782159,1039.99807 96.6462955,1040.86181 100.187871,1038.41031 C103.7231,1035.95246 104.598973,1031.10028 102.149066,1027.5564 C99.6928121,1024.01888 94.8374263,1023.11703 91.2958508,1025.57488" id="Fill-188" fill="#F5CE4D"></path>
                    <path d="M876.437756,1159.69088 C860.34834,1159.69088 847.26736,1146.6014 847.26736,1130.52059 C847.26736,1114.40167 860.34834,1101.28679 876.437756,1101.28679 C892.558906,1101.28679 905.658927,1114.40167 905.658927,1130.52059 C905.658927,1146.6014 892.558906,1159.69088 876.437756,1159.69088 M876.437756,1104.48771 C862.125475,1104.48771 850.459855,1116.15456 850.459855,1130.52059 C850.459855,1144.84217 862.125475,1156.51536 876.437756,1156.51536 C890.794465,1156.51536 902.466432,1144.84217 902.466432,1130.52059 C902.466432,1116.15456 890.794465,1104.48771 876.437756,1104.48771" id="Fill-192" fill="#F5CE4D"></path>
                    <path d="M129.80509,534.532821 C129.80509,538.889629 126.269861,542.446206 121.890494,542.446206 C117.492085,542.446206 113.95051,538.889629 113.95051,534.532821 C113.95051,530.125205 117.492085,526.587681 121.890494,526.587681 C126.269861,526.587681 129.80509,530.125205 129.80509,534.532821" id="Fill-196" fill="#F5CE4D"></path>
                    <path d="M236.906015,1218.49952 C236.906015,1222.85633 233.364439,1226.41291 228.997765,1226.41291 C224.59301,1226.41291 221.057781,1222.85633 221.057781,1218.49952 C221.057781,1214.09826 224.59301,1210.55438 228.997765,1210.55438 C233.364439,1210.55438 236.906015,1214.09826 236.906015,1218.49952" id="Fill-198" fill="#F5CE4D"></path>
                    <path d="M249.026708,1485.70202 C249.026708,1491.90698 244.025343,1496.91794 237.824412,1496.91794 C231.617135,1496.91794 226.558648,1491.90698 226.558648,1485.70202 C226.558648,1479.46531 231.617135,1474.43529 237.824412,1474.43529 C244.025343,1474.43529 249.026708,1479.46531 249.026708,1485.70202" id="Fill-200" fill="#F5CE4D"></path>
                    <polygon id="Fill-204" fill="#F5CE4D" points="94.7327023 566.635379 74.1496747 566.635379 74.1496747 545.314967 71.6934207 545.314967 71.6934207 566.635379 51.1103931 566.635379 51.1103931 568.902698 71.6934207 568.902698 71.6934207 590.419992 74.1496747 590.419992 74.1496747 568.902698 94.7327023 568.902698"></polygon>
                </g>
            </g>
        </g>
    </g>
</svg>