
<svg width="126px" height="79px" viewBox="0 0 126 79" version="1.1" xmlns="http://www.w3.org/2000/svg" xmlns:xlink="http://www.w3.org/1999/xlink">
    <g id="recruiter_end" stroke="none" stroke-width="1" fill="none" fill-rule="evenodd">
        <g id="Recruiter_log-in" transform="translate(-577.000000, -165.000000)" fill="#FFFFFE">
            <g id="Excella-vertical-white" transform="translate(577.000000, 165.000000)">
                <path d="M42.4020158,2.32583735 L53.6760227,13.5992753 C53.9316065,13.8548618 54.2776807,13.9985429 54.6389518,13.9985429 L68.6801711,13.9985429 C69.4324163,13.9985429 70.0416727,14.6084967 70.0416727,15.36075 L70.0416727,29.4014301 C70.0416727,29.7620143 70.1846615,30.108783 70.4402453,30.3643696 L81.6741878,41.5984333 C82.5321203,42.4563751 84,41.8484937 84,40.6354939 L84,1.36220708 C84,0.60995378 83.3907436,0 82.6384984,0 L43.3649449,0 C42.1512674,0 41.5433925,1.46720479 42.4020158,2.32583735" id="Fill-1"></path>
                <path d="M70.2904597,40.2093805 L70.211737,40.2890137 C69.2663738,41.2369954 67.7195414,41.2369954 66.7741782,40.2890137 L42.7085045,16.2370074 C41.7638318,15.2897181 41.7638318,13.7379088 42.7085045,12.7899271 L42.7872272,12.7109863 C43.7325904,11.7630046 45.2808039,11.7630046 46.2254765,12.7109863 L70.2904597,36.7623002 C71.2365134,37.7102819 71.2365134,39.2613988 70.2904597,40.2093805" id="Fill-2"></path>
                <path d="M58.3271621,42.3271621 L58.3271621,42.3271621 C57.4300449,43.2242793 55.9627764,43.2242793 55.0664006,42.3271621 L42.6728379,29.9335994 C41.7757207,29.0372236 41.7757207,27.5699551 42.6728379,26.6728379 C43.5699551,25.7757207 45.0364822,25.7757207 45.9335994,26.6728379 L58.3271621,39.0656592 C59.2242793,39.9627764 59.2242793,41.4300449 58.3271621,42.3271621" id="Fill-3"></path>
                <path d="M42,39.9996511 C42,38.8951683 42.8953245,38 44,38 C45.1046755,38 46,38.8951683 46,39.9996511 C46,41.1048317 45.1046755,42 44,42 C42.8953245,42 42,41.1048317 42,39.9996511" id="Fill-4"></path>
                <path d="M0,50.6046092 L0,77.3960922 C0,77.7292585 0.269395607,78 0.602466539,78 L18.9423597,78 C19.152978,78 19.3475027,77.8905812 19.4573601,77.7103206 L21.9113092,73.6779559 C22.1555145,73.2760521 21.8665265,72.760521 21.3970085,72.760521 L6.90702346,72.760521 C6.57465226,72.760521 6.30525665,72.4897796 6.30525665,72.1566132 L6.30525665,67.1640281 C6.30525665,66.8301603 6.57465226,66.5601202 6.90702346,66.5601202 L19.1501791,66.5601202 C19.4825503,66.5601202 19.7519459,66.2900802 19.7519459,65.9562124 L19.7519459,61.9238477 C19.7519459,61.5913828 19.4825503,61.3206413 19.1501791,61.3206413 L6.90702346,61.3206413 C6.57465226,61.3206413 6.30525665,61.0498998 6.30525665,60.7174349 L6.30525665,55.8440882 C6.30525665,55.5102204 6.57465226,55.2408818 6.90702346,55.2408818 L20.6657918,55.2408818 C20.998163,55.2408818 21.2682584,54.9694389 21.2682584,54.6369739 L21.2682584,50.6046092 C21.2682584,50.2707415 20.998163,50 20.6657918,50 L0.602466539,50 C0.269395607,50 0,50.2707415 0,50.6046092" id="Fill-5"></path>
                <path d="M37.0953407,57.1728162 L33.3705559,63.1575619 C33.2243908,63.3920469 32.8925753,63.3877445 32.7533375,63.1496741 L29.2509176,57.180704 C29.184416,57.0688396 29.0666527,57 28.9398839,57 L22.868838,57 C22.5778933,57 22.4040192,57.333442 22.5633461,57.5844198 L28.8913931,67.5439374 C28.9731347,67.6708605 28.9717493,67.8365059 28.8886222,67.9634289 L22.0631983,78.4112777 C21.8997151,78.6622555 22.0722037,79 22.3652266,79 L28.1986677,79 C28.3205873,79 28.4335016,78.9376141 28.5020814,78.8329205 L32.7380976,72.291721 C32.8863408,72.0629726 33.2133072,72.0701434 33.3525451,72.3039113 L37.2144895,78.820013 C37.2809911,78.9318774 37.3987544,79 37.5255232,79 L43.634669,79 C43.924921,79 44.0994878,78.6651239 43.9387755,78.414146 L37.2172604,67.9204042 C37.1369042,67.7949153 37.1362115,67.6321382 37.2158749,67.5052151 L43.4718785,57.5837027 C43.6312054,57.3327249 43.4566385,57 43.1670793,57 L37.4022181,57 C37.2782202,57 37.1632278,57.0645372 37.0953407,57.1728162" id="Fill-6"></path>
                <path d="M61.8609227,60.2505669 C61.951785,60.1156536 61.9343115,59.9308506 61.8147926,59.8191255 C61.1270347,59.1754767 60.3498123,58.6217701 59.4614583,58.1825993 C57.8671739,57.3949024 56.0471315,57 54.0006323,57 C51.8213343,57 49.9013434,57.4609537 48.2406596,58.3828612 C46.5799758,59.3047686 45.2911286,60.5997956 44.3748169,62.2700501 C43.4571074,63.939602 43,65.8698457 43,68.0600786 C43,70.2243125 43.4571074,72.1341787 44.3748169,73.7903798 C45.2911286,75.4472835 46.5722874,76.7296624 48.2210892,77.6375164 C49.8677942,78.546073 51.7682148,79 53.920953,79 C56.0995521,79 58.0062631,78.5854227 59.6403872,77.7569708 C60.4993856,77.322016 61.2451557,76.7795522 61.8993645,76.1499569 C62.0153887,76.0389345 62.0321632,75.8576448 61.9440967,75.7241368 L59.3880695,71.8629468 C59.2622601,71.6718196 58.9931678,71.6704143 58.8505838,71.8481906 C57.7686232,73.1931074 56.2337488,73.8704845 54.2396701,73.8704845 C52.7516247,73.8704845 51.5291769,73.3301287 50.5730257,72.2480118 C49.6161754,71.1658948 49.1374009,69.7570347 49.1374009,68.0200262 C49.1374009,66.2837203 49.6224659,64.8882111 50.592596,63.832093 C51.5620272,62.7773803 52.8173252,62.2496726 54.359888,62.2496726 C56.1344991,62.2496726 57.6036731,62.8743492 58.7716035,64.1152704 C58.9190801,64.2719665 59.1699999,64.2593184 59.2895188,64.081542 L61.8609227,60.2505669" id="Fill-7"></path>
                <path d="M87.6558515,79 L93.3441485,79 C93.7059426,79 94,78.7398024 94,78.4186321 L94,49.5820769 C94,49.2609066 93.7059426,49 93.3441485,49 L87.6558515,49 C87.2940574,49 87,49.2609066 87,49.5820769 L87,78.4186321 C87,78.7398024 87.2940574,79 87.6558515,79" id="Fill-8"></path>
                <path d="M98.5285275,79 L104.471472,79 C104.763239,79 105,78.7894314 105,78.5299428 L105,49.4707662 C105,49.2112776 104.763239,49 104.471472,49 L98.5285275,49 C98.2367612,49 98,49.2112776 98,49.4707662 L98,78.5299428 C98,78.7894314 98.2367612,79 98.5285275,79" id="Fill-9"></path>
                <path d="M78.6695461,66.2172608 L69.1674593,66.2172608 C69.2863244,65.5461863 69.4357954,65.1266769 69.4357954,65.1266769 L69.4414895,65.1252715 C69.7496846,64.1878753 70.2308389,63.4071803 70.8949173,62.7909161 C71.8009965,61.9483838 72.9305704,61.5281717 74.2836391,61.5281717 C75.7178492,61.5281717 76.8673526,61.9561135 77.7342845,62.8112942 C78.507975,63.5758273 78.9578116,64.5638176 79.0837944,65.7773732 C79.1079944,66.013479 78.9094115,66.2172608 78.6695461,66.2172608 M82.2604096,60.0061326 C80.434016,58.0020442 77.7606199,57 74.2437801,57 C72.0515384,57 70.1034327,57.4616711 68.3987512,58.3822026 C66.6940697,59.3041395 65.3673364,60.5999106 64.4206865,62.2702185 C63.4726132,63.9398237 63,65.870129 63,68.0604318 C63,70.2240322 63.466919,72.1346621 64.4007571,73.7902134 C65.3338833,75.4471701 66.6591931,76.7302926 68.3781099,77.6381755 C70.0956032,78.5467612 72.1056327,79 74.4053512,79 C76.3534569,79 78.1200621,78.6732465 79.7030315,78.0190367 C81.1578828,77.4161237 82.4134395,76.572186 83.4689896,75.4844129 C83.6241548,75.3256037 83.6170371,75.068417 83.4597366,74.9124186 L80.7372286,72.1908777 C80.5799282,72.0334739 80.327251,72.0341766 80.1614093,72.1831481 C79.4781132,72.7966015 78.7236404,73.2723266 77.8965673,73.6103232 C76.948494,73.9982113 75.9619852,74.1914527 74.9334822,74.1914527 C73.5256074,74.1914527 72.3220098,73.8105915 71.3198421,73.0488693 C70.7909994,72.6469273 70.3596687,72.1557429 70.0116147,71.5844513 L70.0023618,71.585154 C69.8507554,71.3363996 69.7276198,71.0834292 69.6165842,70.829756 C69.6158724,70.829756 69.6158724,70.8290533 69.6151606,70.8276479 C69.4749426,70.5065159 69.366754,70.1832758 69.2806302,69.8635493 L84.5679576,69.8635493 C84.7886053,69.8635493 84.9722411,69.695605 84.9814941,69.4763639 C84.9928823,69.1777182 85,68.813019 85,68.3808611 C85,64.8013287 84.0860914,62.0095183 82.2604096,60.0061326" id="Fill-10"></path>
                <path d="M116.052435,61.8597161 C117.098377,61.8646171 118.192935,62.2209917 118.851337,62.7692063 C119.604193,63.3951372 119.981316,64.2794221 119.981316,65.4248616 L119.981316,65.823945 L114.119595,65.823945 C111.530437,65.8498504 109.530923,66.4295716 108.119665,67.5603081 C106.705629,68.6917446 106,70.2691745 106,72.2925975 C106,74.2880148 106.659096,75.9053529 107.980067,77.1432118 C109.299649,78.3810706 111.081779,79 113.326457,79 C114.805083,79 116.112858,78.7605499 117.248393,78.2809497 C118.07834,77.9308765 118.795776,77.4666794 119.400005,76.8883585 C119.636141,76.6636115 120.020903,76.8183438 120.020903,77.1453122 L120.020903,78.3537649 C120.020903,78.5561072 120.18342,78.7199414 120.384136,78.7199414 L125.636766,78.7199414 C125.838175,78.7199414 126.000692,78.555407 125.999998,78.3523646 L125.961799,64.7058112 C125.934019,62.2840048 125.136019,60.3929094 123.564328,59.0360257 C122.004443,57.6875438 119.811159,57.0105022 116.987254,57.0014003 C116.984476,57.0014003 116.982393,57 116.979615,57 C116.979615,57 114.206409,57 108.200229,57.4333906 C108.157169,57.4361912 107.98979,57.4501941 107.974511,57.6609382 L107.974511,61.9318312 C107.974511,62.0578576 108.088412,62.184584 108.30649,62.1502769 C108.30649,62.1502769 111.577664,61.840112 116.052435,61.8597161 M119.981316,71.3277958 C119.981316,71.3586023 119.978538,71.3894087 119.971593,71.4188148 C119.777823,72.3304054 119.225682,73.0872637 118.316559,73.6900897 C117.392158,74.3020177 116.297599,74.6072815 115.029412,74.6072815 C114.000833,74.6072815 113.188248,74.3622303 112.593742,73.8693272 C111.99993,73.3771243 111.702677,72.7182866 111.702677,71.892814 C111.702677,71.0407358 111.986734,70.4225065 112.554849,70.0353256 C113.121574,69.6502451 114.000833,69.4570046 115.188456,69.4570046 L119.618084,69.4570046 C119.818799,69.4570046 119.981316,69.621539 119.981316,69.8238814 L119.981316,71.3277958" id="Fill-11"></path>
            </g>
        </g>
    </g>
</svg>