<svg width="1366px" height="304px" viewBox="0 0 1366 304" version="1.1" xmlns="http://www.w3.org/2000/svg" xmlns:xlink="http://www.w3.org/1999/xlink">
    <g id="recruiter_end" stroke="none" stroke-width="1" fill="none" fill-rule="evenodd">
        <g id="success_screen" transform="translate(0.000000, -104.000000)">
            <g id="Page-1" transform="translate(0.000000, 104.000000)">
                <g id="Group-15" transform="translate(214.000000, 32.000000)">
                    <path d="M244.293336,128.339098 L23.062165,128.339098 C21.1633737,128.339098 19.6286777,126.801843 19.6286777,124.909098 C19.6286777,123.013608 21.1633737,121.479098 23.062165,121.479098 L244.293336,121.479098 C246.190754,121.479098 247.726824,123.013608 247.726824,124.909098 C247.726824,126.801843 246.190754,128.339098 244.293336,128.339098" id="Fill-1" fill="#E0E3E8"></path>
                    <path d="M731.698778,7.21988235 L510.467607,7.21988235 C508.568815,7.21988235 507.034119,5.68262745 507.034119,3.78988235 C507.034119,1.89439216 508.568815,0.359882353 510.467607,0.359882353 L731.698778,0.359882353 C733.596195,0.359882353 735.132265,1.89439216 735.132265,3.78988235 C735.132265,5.68262745 733.596195,7.21988235 731.698778,7.21988235" id="Fill-3" fill="#E0E3E8"></path>
                    <path d="M1134.54948,130.387078 L913.318304,130.387078 C911.419513,130.387078 909.884817,128.849824 909.884817,126.957078 C909.884817,125.061588 911.419513,123.527078 913.318304,123.527078 L1134.54948,123.527078 C1136.44689,123.527078 1137.98296,125.061588 1137.98296,126.957078 C1137.98296,128.849824 1136.44689,130.387078 1134.54948,130.387078" id="Fill-5" fill="#E0E3E8"></path>
                    <path d="M11.0446846,128.339098 L3.47699819,128.339098 C1.57958082,128.339098 0.0435108565,126.801843 0.0435108565,124.909098 C0.0435108565,123.013608 1.57958082,121.479098 3.47699819,121.479098 L11.0446846,121.479098 C12.9421019,121.479098 14.4781719,123.013608 14.4781719,124.909098 C14.4781719,126.801843 12.9421019,128.339098 11.0446846,128.339098" id="Fill-7" fill="#E0E3E8"></path>
                    <path d="M498.450126,7.21988235 L490.88244,7.21988235 C488.985022,7.21988235 487.448952,5.68262745 487.448952,3.78988235 C487.448952,1.89439216 488.985022,0.359882353 490.88244,0.359882353 L498.450126,0.359882353 C500.347543,0.359882353 501.883613,1.89439216 501.883613,3.78988235 C501.883613,5.68262745 500.347543,7.21988235 498.450126,7.21988235" id="Fill-9" fill="#E0E3E8"></path>
                    <path d="M901.300824,130.387078 L893.733138,130.387078 C891.83572,130.387078 890.29965,128.849824 890.29965,126.957078 C890.29965,125.061588 891.83572,123.527078 893.733138,123.527078 L901.300824,123.527078 C903.198241,123.527078 904.734311,125.061588 904.734311,126.957078 C904.734311,128.849824 903.198241,130.387078 901.300824,130.387078" id="Fill-11" fill="#E0E3E8"></path>
                    <path d="M693.935776,113.790902 C701.19295,105.451294 713.596921,104.307961 721.583661,111.244824 C729.573148,118.181686 730.166692,130.61149 722.909517,138.951098 L719.518622,136.00698 C725.206753,129.469529 724.857771,119.824627 718.739596,114.512863 C712.621421,109.199725 703.014801,110.198941 697.326671,116.736392 L693.935776,113.790902 Z" id="Fill-13" fill="#FAD145"></path>
                </g>
                <path d="M907.150053,153.894579 L906.380043,158.10916 L902,157.241772 L902.736713,153 L907.150053,153.894579 Z M907.086233,163.291735 L909.16873,167.252082 L905.204909,169.110576 L903.122412,165.150229 L907.086233,163.291735 Z M915.098506,171.595819 L915.098506,171.595819 L917.194877,172.45505 L915.543863,176.457543 L911.413554,174.735003 L913.000747,170.735229 L915.098506,171.595819 Z M924.648026,172.245681 L926.773533,171.738571 L928,175.953152 L923.718463,177 L922.493383,172.786778 L924.648026,172.245681 Z" id="Fill-16" fill="#FAD145"></path>
                <polygon id="Fill-17" fill="#FAD145" points="612 157 614 157 614 141 612 141"></polygon>
                <polygon id="Fill-18" fill="#FAD145" points="605 151 621 151 621 149 605 149"></polygon>
                <polygon id="Fill-19" fill="#98D7DA" points="1183 104 1185 104 1185 88 1183 88"></polygon>
                <polygon id="Fill-20" fill="#98D7DA" points="1177 97 1193 97 1193 95 1177 95"></polygon>
                <polygon id="Fill-21" fill="#1E8EB6" points="185 68 187 68 187 52 185 52"></polygon>
                <polygon id="Fill-22" fill="#1E8EB6" points="177 62 193 62 193 60 177 60"></polygon>
                <path d="M17.5,230 C7.84976028,230 0,222.149006 0,212.5 C0,202.85237 7.84976028,195 17.5,195 C27.1488643,195 35,202.85237 35,212.5 C35,222.149006 27.1488643,230 17.5,230 M17.5,201.227694 C11.2856638,201.227694 6.22533994,206.284687 6.22533994,212.5 C6.22533994,218.715313 11.2856638,223.772306 17.5,223.772306 C23.7143362,223.772306 28.7732846,218.715313 28.7732846,212.5 C28.7732846,206.284687 23.7143362,201.227694 17.5,201.227694" id="Fill-23" fill="#1F8FB5"></path>
                <path d="M388.497928,74 L365,62.9696023 L365,36.6425902 L388.521416,25 L412,37.3039768 L412,62.9709688 L388.497928,74 Z M368.409942,60.8378604 L388.497928,70.2680852 L408.588676,60.8364939 L408.588676,39.3318646 L388.474439,28.7947738 L368.409942,38.727871 L368.409942,60.8378604 Z" id="Fill-25" fill="#98D7DA"></path>
                <polygon id="Fill-26" fill="#98D7DA" points="387.491746 52 365 39.915694 366.631611 37 387.53852 48.231819 408.435799 37.6046867 410 40.5553959"></polygon>
                <polygon id="Fill-27" fill="#98D7DA" points="387 73 390 73 390 50 387 50"></polygon>
                <polygon id="Fill-28" fill="#FEFEFE" points="106 95 109 95 109 68 106 68"></polygon>
                <polygon id="Fill-29" fill="#FEFEFE" points="95 83 122 83 122 80 95 80"></polygon>
                <g id="Group-36" transform="translate(782.000000, 13.000000)">
                    <path d="M509.083909,25.4035174 C502.061594,25.4035174 496.348826,19.7102028 496.348826,12.7117991 C496.348826,5.71339531 502.061594,0.0187098592 509.083909,0.0187098592 C516.106225,0.0187098592 521.818992,5.71339531 521.818992,12.7117991 C521.818992,19.7102028 516.106225,25.4035174 509.083909,25.4035174 M509.083909,3.40207136 C503.935128,3.40207136 499.743748,7.57780845 499.743748,12.7117991 C499.743748,17.8444188 503.935128,22.0201559 509.083909,22.0201559 C514.23269,22.0201559 518.424071,17.8444188 518.424071,12.7117991 C518.424071,7.57780845 514.23269,3.40207136 509.083909,3.40207136" id="Fill-30" fill="#98D7DA"></path>
                    <path d="M9.5899659,91.4111455 C4.83184839,91.4111455 0.960977419,87.5534554 0.960977419,82.8129108 C0.960977419,78.0723662 4.83184839,74.2146761 9.5899659,74.2146761 C14.3453323,74.2146761 18.2162032,78.0723662 18.2162032,82.8129108 C18.2162032,87.5534554 14.3453323,91.4111455 9.5899659,91.4111455 M9.5899659,77.274507 C6.52518249,77.274507 4.03126313,79.7599343 4.03126313,82.8129108 C4.03126313,85.8672582 6.52518249,88.3513146 9.5899659,88.3513146 C12.6533737,88.3513146 15.1459175,85.8672582 15.1459175,82.8129108 C15.1459175,79.7599343 12.6533737,77.274507 9.5899659,77.274507" id="Fill-32" fill="#98D7DA"></path>
                    <path d="M576.262916,290.456441 C565.318833,290.456441 556.416105,281.584028 556.416105,270.681324 C556.416105,259.777249 565.318833,250.904836 576.262916,250.904836 C587.206999,250.904836 596.108352,259.777249 596.108352,270.681324 C596.108352,281.584028 587.206999,290.456441 576.262916,290.456441 M576.262916,257.942995 C569.214465,257.942995 563.476937,263.656873 563.476937,270.681324 C563.476937,277.704404 569.214465,283.419653 576.262916,283.419653 C583.309992,283.419653 589.04752,277.704404 589.04752,270.681324 C589.04752,263.656873 583.309992,257.942995 576.262916,257.942995" id="Fill-34" fill="#1F8FB5"></path>
                </g>
                <polygon id="Fill-37" fill="#B4BCC2" points="54.9725499 0 51 4.11782214 60.0562372 13.4993072 51 22.8835634 54.9725499 27 68 13.4993072"></polygon>
                <polygon id="Fill-38" fill="#B4BCC2" points="1101.97255 79 1098 74.8833522 1107.0549 65.5 1098 56.1166478 1101.97255 52 1115 65.5"></polygon>
                <polygon id="Fill-39" fill="#1E8EB6" points="249.97255 265 246 260.883352 255.0549 251.5 246 242.116648 249.97255 238 263 251.5"></polygon>
            </g>
        </g>
    </g>
</svg>