<?xml version="1.0" encoding="UTF-8"?>
<svg width="1197px" height="299px" viewBox="0 0 1197 299" version="1.1" xmlns="http://www.w3.org/2000/svg" xmlns:xlink="http://www.w3.org/1999/xlink">
    <!-- Generator: Sketch 53.2 (72643) - https://sketchapp.com -->
    <title>Page 1</title>
    <desc>Created with Sketch.</desc>
    <g id="recruiter_end" stroke="none" stroke-width="1" fill="none" fill-rule="evenodd">
        <g id="graphics" transform="translate(-60.000000, -29.000000)">
            <g id="Page-1" transform="translate(60.000000, 29.000000)">
                <polygon id="Fill-1" fill="#1F8FB5" points="480 93 688 93 688 56 480 56"></polygon>
                <g id="Group-13" transform="translate(108.000000, 27.000000)">
                    <path d="M779.357509,0.513321905 C740.11132,0.513321905 708.295991,32.392741 708.295991,71.7179886 C708.295991,111.043236 740.11132,142.922655 779.357509,142.922655 C818.603697,142.922655 850.419027,111.043236 850.419027,71.7179886 C850.419027,32.392741 818.603697,0.513321905 779.357509,0.513321905 M779.357509,112.238246 C757.023889,112.238246 738.918713,94.0965981 738.918713,71.7179886 C738.918713,49.339379 757.023889,31.1977314 779.357509,31.1977314 C801.691129,31.1977314 819.796305,49.339379 819.796305,71.7179886 C819.796305,94.0965981 801.691129,112.238246 779.357509,112.238246" id="Fill-3" fill="#FFFFFF"></path>
                    <path d="M126.808536,206.991978 L122.542672,202.716311 C129.814196,195.43014 138.910842,190.30055 148.847625,187.880292 L150.271994,193.757369 C141.411937,195.91395 133.297864,200.490788 126.808536,206.991978" id="Fill-5" fill="#36363D"></path>
                    <path d="M217.024796,253.460915 L198.833917,253.460915 L198.833917,247.414506 L211.775152,247.414506 C211.941731,245.739315 212.026228,244.048401 212.026228,242.362325 C212.026228,214.780344 189.63346,192.342468 162.10693,192.342468 C158.139218,192.342468 154.158228,192.822649 150.275012,193.768496 L148.242269,194.263191 L147.066561,192.528734 C138.009748,179.176801 122.99835,171.20241 106.910225,171.20241 C80.8249623,171.20241 59.5366843,191.646991 58.4430587,217.746096 L58.315107,220.817077 L55.2539211,220.638068 C54.5694999,220.598153 53.8826644,220.575172 53.1910006,220.575172 C36.6115892,220.575172 22.5453438,231.666506 18.5064133,247.414506 L81.9101382,247.414506 L81.9101382,253.460915 L11.2855878,253.460915 L11.8287793,249.971439 C14.9925679,229.62362 32.0982715,214.804534 52.6176318,214.532391 C55.2708204,186.612953 78.5737353,165.156001 106.910225,165.156001 C124.309252,165.156001 140.588097,173.448496 150.864073,187.441477 C154.571053,186.679477 158.343216,186.296058 162.10693,186.296058 C192.960206,186.296058 218.060481,211.445687 218.060481,242.362325 C218.060481,245.21922 217.844412,248.08942 217.417101,250.894306 L217.024796,253.460915 Z" id="Fill-7" fill="#36363D"></path>
                    <path d="M211.416646,253.460915 L173.554992,253.460915 C171.889205,253.460915 170.538469,252.107458 170.538469,250.437106 C170.538469,248.767963 171.889205,247.414506 173.554992,247.414506 L211.416646,247.414506 C213.082433,247.414506 214.434376,248.767963 214.434376,250.437106 C214.434376,252.107458 213.082433,253.460915 211.416646,253.460915" id="Fill-9" fill="#36363D"></path>
                    <path d="M78.8928905,253.460915 L3.22873021,253.460915 C1.56173589,253.460915 0.210999716,252.107458 0.210999716,250.437106 C0.210999716,248.767963 1.56173589,247.414506 3.22873021,247.414506 L78.8928905,247.414506 C80.5598848,247.414506 81.910621,248.767963 81.910621,250.437106 C81.910621,252.107458 80.5598848,253.460915 78.8928905,253.460915" id="Fill-11" fill="#36363D"></path>
                </g>
                <polygon id="Fill-14" fill="#36363D" points="0 280 94 280 94 274 0 274"></polygon>
                <g id="Group-31" transform="translate(203.000000, 211.000000)">
                    <path d="M320.748371,68.2207122 L120.110452,68.2207122 C118.444797,68.2207122 117.094167,66.8748878 117.094167,65.2139554 C117.094167,63.5542257 118.444797,62.2084014 120.110452,62.2084014 L320.748371,62.2084014 C322.414027,62.2084014 323.765864,63.5542257 323.765864,65.2139554 C323.765864,66.8748878 322.414027,68.2207122 320.748371,68.2207122" id="Fill-15" fill="#36363D"></path>
                    <path d="M6.43413936,59.1903392 L0.400360933,59.1903392 C0.400360933,43.3038392 13.3707516,30.3807986 29.3127691,30.3807986 C37.6036321,30.3807986 45.3827283,33.9877041 50.7792122,39.9182311 L50.7792122,35.5163392 L56.8129907,35.5163392 L56.8129907,52.463623 L51.8667166,53.3440014 L50.6971364,51.0660824 C47.3368566,42.2899608 38.7430373,36.3931095 29.3127691,36.3931095 C16.6972356,36.3931095 6.43413936,46.6196905 6.43413936,59.1903392" id="Fill-17" fill="#E23E47"></path>
                    <path d="M29.3127691,88 C21.0219061,88 13.2428099,84.3930946 7.84632595,78.4601622 L7.84632595,82.8644595 L1.81254752,82.8644595 L1.81254752,65.8859054 L6.76847755,65.0620541 L7.92840175,67.3147162 C11.2898886,76.0908378 19.8825009,81.9876892 29.3127691,81.9876892 C41.9270956,81.9876892 52.1913988,71.7611081 52.1913988,59.1904595 L58.2251773,59.1904595 C58.2251773,75.0769595 45.2547866,88 29.3127691,88" id="Fill-19" fill="#E23E47"></path>
                    <path d="M755.884097,30.9235784 L755.884097,30.9235784 C754.637269,29.6811865 754.720552,27.6414027 756.056697,26.495227 C760.409129,22.7632405 765.449549,19.9344838 770.887071,18.1713216 C772.564797,17.6264973 774.358394,18.618727 774.774808,20.3265649 L774.776015,20.3289703 C775.146563,21.8467811 774.285974,23.3958622 772.792919,23.8769432 C768.086837,25.3971595 763.723543,27.8458622 759.960126,31.0799297 C758.770027,32.1010243 756.994534,32.0300649 755.884097,30.9235784" id="Fill-21" fill="#36363D"></path>
                    <path d="M826.740499,68.3597446 L812.271017,68.3597446 L812.271017,62.3474338 L821.468335,62.3474338 C821.552825,61.3179203 821.596277,60.2787851 821.596277,59.23965 C821.596277,38.7455959 804.864883,22.0749338 784.301274,22.0749338 C781.339303,22.0749338 778.365262,22.4309338 775.46002,23.1357176 L773.427437,23.6264203 L772.253029,21.9017446 C765.485397,11.9854608 754.277222,6.06455541 742.265187,6.06455541 C722.786668,6.06455541 706.891723,21.2462716 706.075793,40.626623 L705.946644,43.6718662 L702.891735,43.5034878 C702.384796,43.474623 701.873029,43.454177 701.356434,43.454177 C689.383023,43.454177 679.176656,51.2152176 675.886382,62.3474338 L737.629111,62.3474338 L737.629111,68.3597446 L668.603362,68.3597446 L669.145303,64.89115 C671.577402,49.3438122 684.574347,37.9626365 700.267723,37.4599068 C702.615332,16.2598662 720.528376,0.0522445946 742.265187,0.0522445946 C755.590434,0.0522445946 768.067163,6.29787973 776.044207,16.8552041 C778.77202,16.3284203 781.540872,16.0614203 784.301274,16.0614203 C808.192574,16.0614203 827.630055,35.43215 827.630055,59.23965 C827.630055,61.4490149 827.46349,63.6583797 827.131566,65.8100149 L826.740499,68.3597446 Z" id="Fill-23" fill="#36363D"></path>
                    <path d="M821.132669,68.3597446 L808.951655,68.3597446 C807.284792,68.3597446 805.934162,67.0139203 805.934162,65.3529878 C805.934162,63.6932581 807.284792,62.3474338 808.951655,62.3474338 L821.132669,62.3474338 C822.799532,62.3474338 824.150162,63.6932581 824.150162,65.3529878 C824.150162,67.0139203 822.799532,68.3597446 821.132669,68.3597446" id="Fill-25" fill="#36363D"></path>
                    <path d="M737.628507,65.3534689 L737.628507,65.3534689 C737.628507,67.0131986 736.277878,68.3602257 734.611015,68.3602257 L661.791673,68.3602257 C660.126017,68.3602257 658.775388,67.0131986 658.775388,65.3534689 C658.775388,63.6937392 660.126017,62.3467122 661.791673,62.3467122 L734.611015,62.3467122" id="Fill-27" fill="#36363D"></path>
                    <path d="M646.807408,68.3597446 L625.252854,68.3597446 C623.585991,68.3597446 622.235362,67.0139203 622.235362,65.3529878 C622.235362,63.6932581 623.585991,62.3474338 625.252854,62.3474338 L646.807408,62.3474338 C648.473064,62.3474338 649.824901,63.6932581 649.824901,65.3529878 C649.824901,67.0139203 648.473064,68.3597446 646.807408,68.3597446" id="Fill-29" fill="#36363D"></path>
                </g>
                <polygon id="Fill-32" fill="#36363D" points="1026 280 1144 280 1144 274 1026 274"></polygon>
                <g id="Group-51" transform="translate(37.000000, 65.000000)">
                    <path d="M164.306868,0.894572185 C164.257339,7.53938013 165.512467,14.3035126 168.220837,20.8277907 C173.638786,33.8787576 183.845307,43.501857 195.96774,48.5122808 C202.028352,51.0168901 208.568547,52.3680291 215.228335,52.4186517 C221.888123,52.3680291 228.42711,51.0168901 234.488931,48.5122808 C246.610156,43.501857 256.816677,33.8787576 262.234625,20.8277907 C264.944204,14.3035126 266.199331,7.53938013 266.149803,0.894572185 L308.378393,0.894572185 L308.377185,15.6606781 L299.623906,17.1106517 L290.869419,18.5618305 C290.659225,18.5967841 290.44903,18.7124927 290.2787,18.8715921 C290.109578,19.0294861 289.979112,19.2319762 289.928375,19.4380821 C289.004244,23.2552609 287.787772,27.0121748 286.275337,30.6774861 C284.762902,34.3415921 282.954503,37.9128901 280.847725,41.3576318 C280.736587,41.5408371 280.684643,41.7770755 280.691891,42.0121086 C280.699139,42.2471417 280.76558,42.4797642 280.890005,42.6533272 L286.045814,49.8441351 L291.200415,57.0361483 L280.989062,67.2245325 L270.778917,77.4117113 L263.57069,72.2699099 L256.362463,67.1269033 C256.188509,67.0015523 255.955362,66.9352609 255.719799,66.9280291 C255.484236,66.9207974 255.246257,66.9726252 255.062639,67.0847179 C251.610131,69.1855523 248.030782,70.9886781 244.358415,72.4977113 C240.686049,74.0067444 236.920665,75.2204795 233.096089,76.1425325 C232.889519,76.1919497 232.68778,76.3173007 232.528322,76.4824265 C232.370072,76.6487576 232.254102,76.8536583 232.21907,77.0633801 C231.933978,78.7749033 231.206753,83.1465192 230.550801,87.0902543 C229.893641,91.0339894 229.308961,94.5498437 229.308961,94.5498437 L214.869555,94.551049 L200.42894,94.5522543 L198.975698,85.8174596 L197.521248,77.0826649 C197.486215,76.872943 197.369038,76.6632212 197.20958,76.4932742 C197.050122,76.3221219 196.847175,76.1919497 196.640604,76.1425325 C192.81482,75.2192742 189.049436,74.0055391 185.37707,72.496506 C181.703496,70.9886781 178.124146,69.184347 174.672847,67.0835126 C174.490436,66.9726252 174.252457,66.9207974 174.018102,66.9280291 C173.78254,66.9352609 173.549393,67.0015523 173.375438,67.125698 L166.167211,72.2687046 L158.958984,77.4117113 L148.747631,67.2245325 L138.536278,57.0361483 L143.692087,49.8441351 L148.847896,42.6521219 C148.972322,42.4785589 149.038763,42.2459364 149.046011,42.0109033 C149.053259,41.7758702 149.001314,41.5396318 148.890177,41.3576318 C146.783398,37.9128901 144.974999,34.3415921 143.463772,30.6774861 C141.950129,27.0133801 140.733658,23.2564662 139.809526,19.4380821 C139.75879,19.2319762 139.633156,19.0306914 139.467658,18.8727974 C139.30216,18.7149033 139.096797,18.5991947 138.886602,18.5642411 C137.172429,18.280996 132.790957,17.5542013 128.837123,16.8985192 C124.884498,16.2440424 121.359509,15.6606781 121.359509,15.6606781 L121.359509,0.894572185 L164.306868,0.894572185 Z" id="Fill-33" fill="#98D7DA"></path>
                    <path d="M197.450458,95.0464265 L195.058588,80.6720424 C194.865305,79.5161616 194.012446,78.5929033 192.881744,78.272294 C189.932979,77.4370225 187.03495,76.4366252 184.227523,75.2819497 C181.357278,74.1043735 178.538979,72.7472079 175.816112,71.2357642 C174.789299,70.664453 173.534172,70.7162808 172.578631,71.3984795 L160.714714,79.8632874 C159.513946,80.7202543 157.867422,80.5852609 156.823696,79.5426781 L136.40099,59.1671152 C135.357265,58.1245325 135.220759,56.4817113 136.080866,55.283645 L144.565965,43.4476185 C145.249702,42.4954331 145.300439,41.2419232 144.729048,40.2186252 C143.215404,37.504294 141.853971,34.6923338 140.671324,31.8249298 C139.514046,29.0226119 138.511393,26.1286914 137.675446,23.1913801 C137.355322,22.0620159 136.429983,21.2110755 135.270288,21.0182278 L120.864706,18.6317377 C119.409048,18.3906781 118.341162,17.1335523 118.339954,15.6594728 L118.339954,3.90661192 C118.339954,2.24330066 119.691723,0.894572185 121.358784,0.894572185 C123.027053,0.894572185 124.378822,2.24330066 124.378822,3.90661192 L124.378822,10.5526252 C124.378822,12.0254993 125.447916,13.2826252 126.903574,13.5248901 L139.381164,15.5931815 C140.183286,15.7257642 140.92984,16.1042278 141.543511,16.6851815 C142.151143,17.2673404 142.558244,17.9676185 142.74307,18.7293669 C143.637002,22.4151682 144.818441,26.0491417 146.254771,29.5300424 C147.716469,33.0712079 149.470507,36.5231815 151.467357,39.7883338 C151.886538,40.4765589 152.091901,41.2768768 152.062908,42.1133536 C152.038748,42.9462146 151.776609,43.7429166 151.306691,44.4022146 L143.970414,54.6364 C143.111515,55.8344662 143.248021,57.4772874 144.291746,58.5186649 L157.473609,71.6696715 C158.518542,72.7122543 160.163859,72.8472477 161.365834,71.9902808 L171.618259,64.6765325 C172.271796,64.2040556 173.079958,63.9376848 173.941273,63.9159894 C174.759099,63.9075523 175.564845,64.0967841 176.250998,64.5138172 C179.523511,66.5073801 182.982059,68.2562675 186.525168,69.7122675 C190.016332,71.1429563 193.658498,72.3241483 197.351401,73.2148636 C198.110034,73.3956583 198.825179,73.8126914 199.40261,74.4189563 C199.996954,75.0589695 200.370231,75.8038437 200.500696,76.5957245 L202.568819,89.0211417 C202.81163,90.4747311 204.07159,91.5402146 205.547784,91.5402146 L224.189876,91.537804 C225.66607,91.537804 226.92603,90.4723205 227.167633,89.0199364 L229.241796,76.5692079 C229.371053,75.7761219 229.749162,75.0288371 230.336257,74.4117245 C230.924561,73.8018437 231.632458,73.3932477 232.400756,73.2112477 C236.077954,72.3241483 239.718912,71.1453669 243.20766,69.7122675 C246.762849,68.2502411 250.221397,66.5025589 253.490286,64.5126119 C254.188519,64.0919629 254.980977,63.8810358 255.820548,63.9171947 C256.675822,63.9449166 257.475528,64.2124927 258.131481,64.6849695 L268.370618,71.9902808 C269.572593,72.8472477 271.21791,72.7122543 272.262843,71.6696715 L285.445914,58.5174596 C286.489639,57.4748768 286.626145,55.8332609 285.766038,54.6339894 L278.434593,44.4082411 C277.964675,43.7501483 277.702536,42.9582675 277.674752,42.1145589 C277.649383,41.269645 277.854746,40.4717377 278.267887,39.7919497 C280.269569,36.5207709 282.022399,33.0687974 283.481681,29.5300424 C284.920427,26.0467311 286.101866,22.4127576 286.99459,18.7293669 C287.178208,17.9603868 287.601013,17.2468503 288.214685,16.6719232 C288.830773,16.096996 289.57491,15.7221483 290.368576,15.5883603 L302.832878,13.5236848 C304.289744,13.2826252 305.35763,12.0254993 305.35763,10.5514199 L305.35763,3.90661192 C305.35763,2.24330066 306.709399,0.894572185 308.377668,0.894572185 C310.044729,0.894572185 311.396498,2.24330066 311.396498,3.90661192 L311.396498,15.6594728 C311.396498,17.1335523 310.328612,18.3906781 308.871746,18.6317377 L294.46858,21.0182278 C293.308885,21.2110755 292.383546,22.0620159 292.062214,23.1901748 C291.226267,26.131102 290.223614,29.0238172 289.067544,31.8249298 C287.884897,34.6899232 286.524672,37.5030887 285.008612,40.2186252 C284.437221,41.2419232 284.487958,42.4954331 285.171694,43.4488238 L293.655586,55.2860556 C294.514485,56.4841219 294.379187,58.126943 293.334254,59.1683205 L272.912756,79.5426781 C271.86903,80.5852609 270.222506,80.7202543 269.021738,79.8632874 L257.159028,71.3984795 C256.203488,70.7162808 254.94836,70.664453 253.922756,71.2345589 C251.208345,72.7423868 248.386422,74.1007576 245.507721,75.2819497 C242.700294,76.4378305 239.801057,77.4394331 236.855916,78.272294 C235.725214,78.5929033 234.872355,79.5161616 234.679072,80.6732477 L232.287202,95.0452212 C232.045599,96.4976053 230.785639,97.5630887 229.308236,97.5630887 L200.429423,97.5654993 C198.952021,97.5654993 197.692061,96.5000159 197.450458,95.0464265 L197.450458,95.0464265 Z M195.922319,79.0702013 C195.929567,79.0714066 195.936815,79.0738172 195.944063,79.0750225 C195.936815,79.0738172 195.929567,79.0714066 195.922319,79.0702013 L195.922319,79.0702013 Z M233.82259,79.0677907 C233.816549,79.0702013 233.810509,79.0702013 233.804469,79.0714066 C233.810509,79.0702013 233.816549,79.0702013 233.82259,79.0677907 L233.82259,79.0677907 Z M194.542765,77.5768371 C194.542765,77.580453 194.543973,77.5828636 194.543973,77.5864795 L194.542765,77.5768371 Z M235.199727,77.5491152 L235.197311,77.5587576 C235.198519,77.5551417 235.198519,77.5539364 235.199727,77.5491152 L235.199727,77.5491152 Z M173.100494,69.6544132 C173.10291,69.6568238 173.106534,69.6592344 173.10895,69.6604397 C173.106534,69.6592344 173.10291,69.6568238 173.100494,69.6544132 L173.100494,69.6544132 Z M254.606492,69.5760689 C254.612532,69.5820954 254.618572,69.5857113 254.623404,69.5905325 L254.606492,69.5760689 Z M175.144456,69.5688371 L175.125128,69.5796848 C175.132376,69.5760689 175.138416,69.572453 175.144456,69.5688371 L175.144456,69.5688371 Z M292.865544,20.1359497 C292.865544,20.1395656 292.864336,20.1455921 292.863128,20.1516185 C292.864336,20.1455921 292.865544,20.1395656 292.865544,20.1359497 L292.865544,20.1359497 Z" id="Fill-35" fill="#36363D"></path>
                    <path d="M215.250684,55.4308119 C206.530021,55.3681364 198.118611,53.2600702 190.288256,49.1885735 C180.469508,44.0841364 172.40963,35.9785073 167.362542,26.1456861 C163.269787,18.1714344 161.222201,9.63069272 161.287434,0.872997351 L167.326302,0.915182781 C167.267109,8.80265298 169.138325,16.4900437 172.874716,23.6639775 C177.201827,31.9745073 183.976376,38.889302 192.212624,43.3814477 C199.419644,47.3131298 207.221006,49.3476728 215.250684,49.4055272 C223.298481,49.3464675 231.189237,47.273355 238.449409,43.2681497 C246.657873,38.7386397 253.392558,31.7925073 257.68222,23.4699245 C261.350962,16.3514344 263.188353,8.7315404 263.130369,0.915182781 L269.169237,0.872997351 C269.233262,9.57163311 267.214668,18.0557258 263.176273,25.9829709 C258.16301,35.8266397 250.139373,43.9599907 240.343577,49.0969709 C232.466109,53.2287325 223.98101,55.3681364 215.250684,55.4308119" id="Fill-37" fill="#36363D"></path>
                    <path d="M113.993153,57.8767232 L50.4769179,57.8767232 C48.8086489,57.8767232 47.4568798,56.5279947 47.4568798,54.8634781 C47.4568798,53.2001669 48.8086489,51.8514384 50.4769179,51.8514384 L113.993153,51.8514384 C115.660214,51.8514384 117.013191,53.2001669 117.013191,54.8634781 C117.013191,56.5279947 115.660214,57.8767232 113.993153,57.8767232" id="Fill-39" fill="#98D7DA"></path>
                    <path d="M98.8907874,20.3785762 L72.4823656,20.3785762 C70.8153046,20.3785762 69.4635355,19.0298477 69.4635355,17.3653311 C69.4635355,15.7020199 70.8153046,14.3532914 72.4823656,14.3532914 L98.8907874,14.3532914 C100.557848,14.3532914 101.910826,15.7020199 101.910826,17.3653311 C101.910826,19.0298477 100.557848,20.3785762 98.8907874,20.3785762" id="Fill-41" fill="#36363D"></path>
                    <path d="M26.1387927,57.8767232 L3.13214198,57.8767232 C1.4638729,57.8767232 0.112103817,56.5279947 0.112103817,54.8634781 C0.112103817,53.2001669 1.4638729,51.8514384 3.13214198,51.8514384 L26.1387927,51.8514384 C27.8058538,51.8514384 29.1588309,53.2001669 29.1588309,54.8634781 C29.1588309,56.5279947 27.8058538,57.8767232 26.1387927,57.8767232" id="Fill-43" fill="#98D7DA"></path>
                    <path d="M541.753533,151.03963 L523.729945,133.727935 C522.52797,132.574465 522.49173,130.667683 523.6478,129.468412 L523.6478,129.468412 C524.803871,128.26914 526.716159,128.232981 527.918134,129.386452 L541.176102,142.122836 C542.45539,143.351034 544.516264,143.218452 545.62643,141.835975 L567.280104,114.867432 C568.322621,113.569326 570.221621,113.359604 571.523861,114.399776 C572.824894,115.439948 573.035089,117.335882 571.992571,118.635193 L546.203861,150.75277 C545.093695,152.135246 543.032821,152.269034 541.753533,151.03963" id="Fill-45" fill="#2E2E75"></path>
                    <path d="M547.586314,181.411332 C546.44474,181.411332 545.311621,181.373968 544.189375,181.29924 L544.59406,175.286008 C546.461652,175.411359 548.376356,175.419796 550.243948,175.307703 L550.609976,181.320935 C549.608532,181.382405 548.601047,181.411332 547.586314,181.411332 L547.586314,181.411332 Z M559.074539,180.085505 L557.68653,174.220525 C559.526337,173.787823 561.343192,173.234591 563.082734,172.575293 L565.225753,178.208856 C563.239776,178.962167 561.170446,179.593743 559.074539,180.085505 L559.074539,180.085505 Z M535.734476,179.995107 C533.659106,179.493703 531.594608,178.845253 529.598967,178.075068 L531.780642,172.457174 C533.531056,173.13214 535.340663,173.69863 537.161142,174.14218 L535.734476,179.995107 Z M572.938931,174.514617 L569.868156,169.325809 C571.477232,168.378445 573.047652,167.310551 574.535927,166.153465 L578.24695,170.908366 C576.556936,172.22214 574.770282,173.435875 572.938931,174.514617 L572.938931,174.514617 Z M521.917198,174.325385 C520.096719,173.23218 518.320936,172.006392 516.640587,170.678154 L520.386642,165.955796 C521.865253,167.122525 523.426009,168.201266 525.026629,169.158273 L521.917198,174.325385 Z M584.522589,165.098829 L580.051724,161.046617 C581.32014,159.655703 582.502787,158.174392 583.573089,156.644869 L588.525952,160.093226 C587.30948,161.832472 585.961335,163.517478 584.522589,165.098829 L584.522589,165.098829 Z M510.408436,164.827637 C508.985394,163.241465 507.650537,161.546816 506.441314,159.793107 L511.419545,156.379703 C512.48139,157.921279 513.655581,159.412233 514.910709,160.810379 L510.408436,164.827637 Z M592.802326,152.696313 L587.33364,150.147107 C588.127306,148.447637 588.819499,146.683081 589.386058,144.904061 L595.141043,146.727677 C594.497171,148.756193 593.708337,150.76422 592.802326,152.696313 L592.802326,152.696313 Z M502.214469,152.36124 C501.325369,150.423121 500.55224,148.409068 499.921656,146.370909 L505.688721,144.589478 C506.245616,146.379346 506.923312,148.147518 507.70369,149.850604 L502.214469,152.36124 Z M597.018299,138.395452 L591.034999,137.584286 C591.286266,135.730538 591.421564,133.841836 591.433644,131.968803 L597.472513,132.007372 C597.459224,134.138339 597.305806,136.287385 597.018299,138.395452 L597.018299,138.395452 Z M498.107217,138.02663 C497.835413,135.927001 497.6977,133.77675 497.6977,131.634935 L503.736568,131.634935 C503.736568,133.520021 503.856161,135.412339 504.09414,137.258856 L498.107217,138.02663 Z M504.183534,125.358948 L498.206274,124.503187 C498.509486,122.386683 498.956452,120.276207 499.530259,118.228405 L505.344436,119.849531 C504.841902,121.647836 504.450505,123.501584 504.183534,125.358948 L504.183534,125.358948 Z M590.852589,124.480286 C590.546961,122.624127 590.119324,120.778816 589.578133,118.99377 L595.36211,117.25573 C595.974574,119.287862 596.462612,121.388697 596.812936,123.499174 L590.852589,124.480286 Z M507.982742,112.822644 L502.533385,110.230048 C503.451476,108.306392 504.504866,106.424922 505.663352,104.63867 L510.7346,107.913465 C509.716244,109.481558 508.790904,111.134021 507.982742,112.822644 L507.982742,112.822644 Z M586.794866,112.021121 C585.951671,110.345756 584.991299,108.712577 583.942742,107.164975 L588.942717,103.786525 C590.138652,105.549875 591.231906,107.40965 592.192278,109.318842 L586.794866,112.021121 Z M515.344387,101.980988 L510.906139,97.8926172 C512.356965,96.3257298 513.920137,94.8395974 515.550957,93.4739947 L519.43231,98.0914914 C517.994772,99.2931735 516.621259,100.602127 515.344387,101.980988 L515.344387,101.980988 Z M579.20853,101.325306 C577.911121,99.9777828 576.509824,98.6977563 575.044501,97.5225907 L578.831629,92.8267497 C580.496274,94.1646305 582.088438,95.6182199 583.564633,97.1513589 L579.20853,101.325306 Z M525.596812,93.7741139 L522.557446,88.5684318 C524.396045,87.4993325 526.331285,86.5387099 528.311223,85.7106702 L530.647524,91.2658887 C528.90919,91.9926834 527.208305,92.8388026 525.596812,93.7741139 L525.596812,93.7741139 Z M568.799062,93.3353854 C567.158577,92.4290013 565.441988,91.6202464 563.70003,90.9320212 L565.92157,85.329796 C567.902715,86.1108291 569.854868,87.0304715 571.724875,88.0622066 L568.799062,93.3353854 Z M537.808639,88.9770278 L536.467742,83.0999947 C538.552776,82.6275179 540.686131,82.2864185 542.81103,82.0839285 L543.381213,88.0826967 C541.516037,88.2586702 539.63999,88.5612 537.808639,88.9770278 L537.808639,88.9770278 Z M556.497843,88.787796 C554.665284,88.411743 552.783196,88.1489881 550.908356,88.0091735 L551.35653,81.9995576 C553.491093,82.158657 555.632904,82.4563656 557.720354,82.8878623 L556.497843,88.787796 Z" id="Fill-47" fill="#2E2E75"></path>
                    <path d="M629.932366,12.2840358 L511.301643,12.2840358 C509.633374,12.2840358 508.281605,10.9353073 508.281605,9.27079073 C508.281605,7.60747947 509.633374,6.25875099 511.301643,6.25875099 L629.932366,6.25875099 C631.600635,6.25875099 632.952404,7.60747947 632.952404,9.27079073 C632.952404,10.9353073 631.600635,12.2840358 629.932366,12.2840358" id="Fill-49" fill="#36363D"></path>
                </g>
                <polygon id="Fill-52" fill="#36363D" points="480 96 688 96 688 90 480 90"></polygon>
                <g id="Group-77" transform="translate(477.000000, 32.000000)">
                    <path d="M210.549643,182.874886 L174.34235,182.874886 C172.675385,182.874886 171.324673,181.521846 171.324673,179.85201 C171.324673,178.183382 172.675385,176.830343 174.34235,176.830343 L204.515496,176.830343 C206.181254,176.830343 207.531966,175.477304 207.531966,173.807467 L207.531966,29.496585 C207.531966,27.8279575 206.181254,26.4749183 204.515496,26.4749183 L179.587072,26.4749183 C177.920108,26.4749183 176.569395,25.1218791 176.569395,23.4520425 C176.569395,21.783415 177.920108,20.4303758 179.587072,20.4303758 L210.549643,20.4303758 C212.215401,20.4303758 213.56732,21.783415 213.56732,23.4520425 L213.56732,179.85201 C213.56732,181.521846 212.215401,182.874886 210.549643,182.874886" id="Fill-53" fill="#36363D"></path>
                    <path d="M38.6943995,182.874886 L3.01701061,182.874886 C1.35125303,182.874886 0.000540909091,181.521846 0.000540909091,179.85201 L0.000540909091,23.4520425 C0.000540909091,21.783415 1.35125303,20.4303758 3.01701061,20.4303758 L182.602576,20.4303758 C184.269541,20.4303758 185.620253,21.783415 185.620253,23.4520425 C185.620253,25.1218791 184.269541,26.4749183 182.602576,26.4749183 L9.05115707,26.4749183 C7.38539949,26.4749183 6.03468737,27.8279575 6.03468737,29.496585 L6.03468737,173.807467 C6.03468737,175.477304 7.38539949,176.830343 9.05115707,176.830343 L38.6943995,176.830343 C40.3613641,176.830343 41.7120763,178.183382 41.7120763,179.85201 C41.7120763,181.521846 40.3613641,182.874886 38.6943995,182.874886" id="Fill-55" fill="#36363D"></path>
                    <path d="M49.8693394,127.144542 L21.5224909,127.144542 C19.8567333,127.144542 18.5060212,125.791503 18.5060212,124.121667 L18.5060212,80.7313072 C18.5060212,79.0614706 19.8567333,77.7084314 21.5224909,77.7084314 L106.78393,77.7084314 C108.450895,77.7084314 109.801607,79.0614706 109.801607,80.7313072 L109.801607,98.6291503 C109.801607,100.297778 108.450895,101.652026 106.78393,101.652026 C105.118173,101.652026 103.767461,100.297778 103.767461,98.6291503 L103.767461,86.7758497 C103.767461,85.1072222 102.416748,83.754183 100.749784,83.754183 L27.5566374,83.754183 C25.8908798,83.754183 24.5401677,85.1072222 24.5401677,86.7758497 L24.5401677,118.077124 C24.5401677,119.746961 25.8908798,121.1 27.5566374,121.1 L49.8693394,121.1 C51.535097,121.1 52.8870162,122.453039 52.8870162,124.121667 C52.8870162,125.791503 51.535097,127.144542 49.8693394,127.144542" id="Fill-57" fill="#36363D"></path>
                    <path d="M21.5226116,164.911869 L21.5226116,164.911869 C19.856854,164.911869 18.5049348,163.55883 18.5049348,161.888993 L18.5049348,140.552327 C18.5049348,138.883699 19.856854,137.529451 21.5226116,137.529451 L49.8694601,137.529451 C51.5352177,137.529451 52.8859298,138.883699 52.8859298,140.552327 C52.8859298,142.220954 51.5352177,143.573993 49.8694601,143.573993 L27.5567581,143.573993 C25.8910005,143.573993 24.5402884,144.928242 24.5402884,146.596869 L24.5402884,161.888993 C24.5402884,163.55883 23.1895763,164.911869 21.5226116,164.911869" id="Fill-59" fill="#36363D"></path>
                    <path d="M189.029021,83.7535784 L123.212283,83.7535784 C121.545319,83.7535784 120.194607,82.4005392 120.194607,80.7307026 C120.194607,79.0620752 121.545319,77.7090359 123.212283,77.7090359 L189.029021,77.7090359 C190.694778,77.7090359 192.046697,79.0620752 192.046697,80.7307026 C192.046697,82.4005392 190.694778,83.7535784 189.029021,83.7535784" id="Fill-61" fill="#36363D"></path>
                    <path d="M189.029021,97.3462418 L182.211485,97.3462418 C180.544521,97.3462418 179.193809,95.9932026 179.193809,94.323366 C179.193809,92.6547386 180.544521,91.3016993 182.211485,91.3016993 L189.029021,91.3016993 C190.694778,91.3016993 192.046697,92.6547386 192.046697,94.323366 C192.046697,95.9932026 190.694778,97.3462418 189.029021,97.3462418" id="Fill-63" fill="#36363D"></path>
                    <path d="M163.326381,97.3462418 L123.211801,97.3462418 C121.546043,97.3462418 120.194124,95.9932026 120.194124,94.323366 C120.194124,92.6547386 121.546043,91.3016993 123.211801,91.3016993 L163.326381,91.3016993 C164.992139,91.3016993 166.344058,92.6547386 166.344058,94.323366 C166.344058,95.9932026 164.992139,97.3462418 163.326381,97.3462418" id="Fill-65" fill="#36363D"></path>
                    <path d="M189.029021,110.93685 L143.660061,110.93685 C141.993096,110.93685 140.642384,109.58381 140.642384,107.913974 C140.642384,106.245346 141.993096,104.892307 143.660061,104.892307 L189.029021,104.892307 C190.694778,104.892307 192.046697,106.245346 192.046697,107.913974 C192.046697,109.58381 190.694778,110.93685 189.029021,110.93685" id="Fill-67" fill="#36363D"></path>
                    <path d="M189.029021,143.574477 L164.110253,143.574477 C162.443288,143.574477 161.092576,142.221438 161.092576,140.551601 C161.092576,138.882974 162.443288,137.529935 164.110253,137.529935 L189.029021,137.529935 C190.694778,137.529935 192.046697,138.882974 192.046697,140.551601 C192.046697,142.221438 190.694778,143.574477 189.029021,143.574477" id="Fill-69" fill="#36363D"></path>
                    <path d="M189.029021,157.165206 L176.178546,157.165206 C174.512788,157.165206 173.160869,155.812167 173.160869,154.14233 C173.160869,152.473703 174.512788,151.120663 176.178546,151.120663 L189.029021,151.120663 C190.694778,151.120663 192.046697,152.473703 192.046697,154.14233 C192.046697,155.812167 190.694778,157.165206 189.029021,157.165206" id="Fill-71" fill="#36363D"></path>
                    <path d="M52.8019177,42.159049 L52.8019177,42.159049 C52.8019177,40.4904216 54.1526298,39.1361732 55.8195944,39.1361732 C57.485352,39.1361732 58.8360641,40.4904216 58.8360641,42.159049 C58.8360641,43.8276765 57.485352,45.1819248 55.8195944,45.1819248 C54.1526298,45.1819248 52.8019177,43.8276765 52.8019177,42.159049 M36.7104581,42.159049 L36.7104581,42.159049 C36.7104581,40.4904216 38.0611702,39.1361732 39.7281348,39.1361732 C41.3938924,39.1361732 42.7446045,40.4904216 42.7446045,42.159049 C42.7446045,43.8276765 41.3938924,45.1819248 39.7281348,45.1819248 C38.0611702,45.1819248 36.7104581,43.8276765 36.7104581,42.159049 M20.6189985,42.159049 L20.6189985,42.159049 C20.6189985,40.4904216 21.9697106,39.1361732 23.6366753,39.1361732 C25.3024328,39.1361732 26.6531449,40.4904216 26.6531449,42.159049 C26.6531449,43.8276765 25.3024328,45.1819248 23.6366753,45.1819248 C21.9697106,45.1819248 20.6189985,43.8276765 20.6189985,42.159049" id="Fill-73" fill="#36363D"></path>
                    <path d="M410.577434,0.106977124 C374.110621,0.106977124 344.548252,29.7202778 344.548252,66.2499183 C344.548252,102.779559 374.110621,132.394069 410.577434,132.394069 C447.044247,132.394069 476.607823,102.779559 476.607823,66.2499183 C476.607823,29.7202778 447.044247,0.106977124 410.577434,0.106977124 M410.577434,103.889559 C389.825474,103.889559 373.00253,87.0376307 373.00253,66.2499183 C373.00253,45.4622059 389.825474,28.6102778 410.577434,28.6102778 C431.329393,28.6102778 448.152338,45.4622059 448.152338,66.2499183 C448.152338,87.0376307 431.329393,103.889559 410.577434,103.889559" id="Fill-75" fill="#E23E47"></path>
                </g>
                <polygon id="Fill-78" fill="#36363D" points="828.815585 43 817 31.184415 821.185599 27 833 38.8144009"></polygon>
                <g id="Group-107" transform="translate(363.000000, 0.000000)">
                    <path d="M447.087175,69.7517602 L436.91407,65.5359201 C435.37324,64.8975594 434.640893,63.1299775 435.278978,61.5872725 C435.918271,60.0457766 437.68509,59.3143217 439.22592,59.9526824 L449.399024,64.1673135 C450.939854,64.8068832 451.672202,66.5744652 451.034117,68.1159611 C450.394823,69.658666 448.628005,70.3901209 447.087175,69.7517602" id="Fill-79" fill="#36363D"></path>
                    <path d="M441.84799,102.150861 L430.834982,102.150861 C429.166051,102.150861 427.813746,100.797971 427.813746,99.1283197 C427.813746,97.459877 429.166051,96.1069877 430.834982,96.1069877 L441.84799,96.1069877 C443.515712,96.1069877 444.869225,97.459877 444.869225,99.1283197 C444.869225,100.797971 443.515712,102.150861 441.84799,102.150861" id="Fill-81" fill="#36363D"></path>
                    <path d="M464.322115,41.8269877 L456.534578,34.0360861 C455.355088,32.8560861 455.355088,30.9422131 456.534578,29.7622131 C457.714068,28.5822131 459.625906,28.5822131 460.805397,29.7622131 L468.594142,37.5531148 C469.772424,38.7331148 469.772424,40.6469877 468.594142,41.8269877 C467.414651,43.0069877 465.501605,43.0069877 464.322115,41.8269877" id="Fill-83" fill="#35353E"></path>
                    <path d="M490.924577,22.6238176 L486.710558,12.4463176 C486.072473,10.9048217 486.80482,9.13723975 488.34565,8.4988791 C489.88648,7.85930943 491.654507,8.59197336 492.292592,10.1334693 L496.506612,20.3109693 C497.144697,21.8524652 496.412349,23.6200471 494.871519,24.2596168 C493.330689,24.8979775 491.562662,24.1665225 490.924577,22.6238176" id="Fill-85" fill="#36363D"></path>
                    <path d="M526.021236,17.0616393 L526.021236,17.0616393 C524.353514,17.0616393 523,15.70875 523,14.0390984 L523,3.02133197 C523,1.35288934 524.353514,0 526.021236,0 C527.688958,0 529.042471,1.35288934 529.042471,3.02133197 L529.042471,14.0390984 C529.042471,15.70875 527.688958,17.0616393 526.021236,17.0616393" id="Fill-87" fill="#36363D"></path>
                    <path d="M559.446924,188.123654 L555.232904,177.944945 C554.594819,176.403449 555.327167,174.635867 556.867997,173.996297 C558.408827,173.356727 560.176854,174.089391 560.814939,175.632096 L565.028958,185.810805 C565.667043,187.352301 564.934696,189.121092 563.393866,189.759453 C561.853036,190.399023 560.085008,189.666359 559.446924,188.123654" id="Fill-89" fill="#36363D"></path>
                    <path d="M525.870846,197.225855 L525.870846,197.225855 C524.203124,197.225855 522.84961,195.872965 522.84961,194.203314 L522.84961,183.187965 C522.84961,181.519523 524.203124,180.166633 525.870846,180.166633 C527.538568,180.166633 528.892081,181.519523 528.892081,183.187965 L528.892081,194.203314 C528.892081,195.872965 527.538568,197.225855 525.870846,197.225855" id="Fill-91" fill="#36363D"></path>
                    <path d="M590.933757,168.493338 L583.148637,160.703645 C581.967938,159.523645 581.967938,157.610982 583.148637,156.430982 C584.328127,155.250982 586.239965,155.250982 587.419456,156.430982 L595.205784,164.219465 C596.385274,165.399465 596.385274,167.313338 595.205784,168.493338 C594.025085,169.673338 592.113247,169.673338 590.933757,168.493338" id="Fill-93" fill="#36363D"></path>
                    <path d="M612.513596,138.303352 L602.340492,134.088721 C600.799662,133.449152 600.067314,131.68157 600.705399,130.138865 C601.344693,128.597369 603.111511,127.865914 604.652341,128.504275 L614.825446,132.720115 C616.366276,133.358475 617.098623,135.126057 616.460538,136.668762 C615.821245,138.210258 614.054426,138.941713 612.513596,138.303352" id="Fill-95" fill="#36363D"></path>
                    <path d="M620.904776,102.150861 L609.894185,102.150861 C608.225254,102.150861 606.872949,100.797971 606.872949,99.1283197 C606.872949,97.459877 608.225254,96.1069877 609.894185,96.1069877 L620.904776,96.1069877 C622.572498,96.1069877 623.926011,97.459877 623.926011,99.1283197 C623.926011,100.797971 622.572498,102.150861 620.904776,102.150861" id="Fill-97" fill="#36363D"></path>
                    <path d="M530.08136,122.474668 C530.072901,122.47225 530.072901,122.47225 530.062024,122.474668 C525.632893,122.474668 521.463588,120.746984 518.325129,117.610795 L512.861526,112.141205 L517.133553,107.868541 L522.595947,113.335713 C524.59238,115.33059 527.245024,116.430795 530.06565,116.430795 L530.077735,116.430795 C532.897152,116.430795 535.546171,115.33059 537.542603,113.335713 L599.718422,51.1330287 C601.716063,49.1345246 602.815793,46.4783156 602.814584,43.6552623 C602.815793,40.831 601.716063,38.177209 599.718422,36.1787049 L588.792426,25.2467787 C586.795993,23.2506926 584.143349,22.1504877 581.322723,22.1504877 L581.311847,22.1504877 C578.491221,22.1504877 575.839785,23.2506926 573.844561,25.2467787 L535.786661,63.321123 L531.514634,59.048459 L569.572534,20.9741148 C572.709785,17.8355082 576.876673,16.1066148 581.307013,16.1066148 C581.313055,16.1041967 581.313055,16.1041967 581.327557,16.1066148 C585.757897,16.1066148 589.927202,17.8342992 593.063244,20.9741148 L603.990449,31.904832 C607.130117,35.0446475 608.857055,39.2181721 608.855847,43.6552623 C608.857055,48.0911434 607.130117,52.265877 603.990449,55.4056926 L541.813422,117.609586 C538.67738,120.746984 534.5117,122.474668 530.08136,122.474668" id="Fill-99" fill="#36363D"></path>
                    <path d="M470.426581,182.14942 L470.418122,182.14942 C466.015578,182.14942 461.79189,180.398764 458.678809,177.284338 L448.039226,166.641367 C445.785385,164.385342 444.035485,161.61065 443.328516,158.49985 C442.001589,152.667555 443.699524,146.898129 447.749188,142.849133 L509.926215,80.6488668 C513.061049,77.5102602 517.227937,75.7813668 521.658276,75.7813668 L521.66311,75.7813668 C526.072906,75.7813668 530.301427,77.5332316 533.419342,80.6524939 L538.868442,86.1039488 C538.873276,86.1099939 538.873276,86.118457 538.868442,86.124502 L534.61696,90.3778217 C534.610917,90.3826578 534.602458,90.3826578 534.596415,90.3778217 L529.144898,84.9239488 C527.161759,82.9399529 524.472859,81.8252398 521.667944,81.8252398 L521.661902,81.8252398 C518.842485,81.8252398 516.193466,82.9254447 514.19945,84.9215307 L452.261705,146.881203 C450.832056,148.311469 449.694863,150.059707 449.229593,152.027986 C448.344975,155.773518 449.424161,159.479154 452.021215,162.07733 L462.949628,173.009256 C464.931558,174.992043 467.619249,176.105547 470.422956,176.105547 C473.225454,176.105547 475.914354,174.992043 477.896284,173.009256 L515.943307,134.944584 C515.948141,134.938539 515.957809,134.938539 515.963852,134.944584 L520.214126,139.197904 C520.220168,139.203949 520.220168,139.212412 520.214126,139.218457 L482.163477,177.285547 C479.050396,180.399973 474.827917,182.14942 470.426581,182.14942" id="Fill-101" fill="#36363D"></path>
                    <path d="M404.952661,215.739764 L328.626584,215.739764 C326.958862,215.739764 325.606557,214.386875 325.606557,212.717223 C325.606557,211.048781 326.958862,209.695891 328.626584,209.695891 L404.952661,209.695891 C406.620383,209.695891 407.973897,211.048781 407.973897,212.717223 C407.973897,214.386875 406.620383,215.739764 404.952661,215.739764" id="Fill-103" fill="#36363D"></path>
                    <path d="M164.73628,234.310498 L3.21256911,234.310498 C1.5448471,234.310498 0.191333591,232.957609 0.191333591,231.287957 C0.191333591,229.619514 1.5448471,228.266625 3.21256911,228.266625 L164.73628,228.266625 C166.404002,228.266625 167.757515,229.619514 167.757515,231.287957 C167.757515,232.957609 166.404002,234.310498 164.73628,234.310498" id="Fill-105" fill="#36363D"></path>
                </g>
                <polygon id="Fill-108" fill="#36363D" points="619.877899 298 604 285.304735 607.721307 280.486711 619.877899 290.209779 633.908999 279 647.931666 290.209779 661.961561 279 675.996275 290.209779 690.033398 279 704.068112 290.209779 718.108849 279 734 291.695265 730.278693 296.514514 718.108849 286.790221 704.068112 298 690.033398 286.790221 675.996275 298 661.961561 286.790221 647.931666 298 633.908999 286.790221"></polygon>
                <g id="Group-125" transform="translate(265.000000, 157.000000)">
                    <path d="M928.306648,60.1963812 L861.271462,60.1963812 C859.604244,60.1963812 858.253327,58.8503377 858.253327,57.1891348 C858.253327,55.5291348 859.604244,54.1830913 861.271462,54.1830913 L928.306648,54.1830913 C929.972659,54.1830913 931.324783,55.5291348 931.324783,57.1891348 C931.324783,58.8503377 929.972659,60.1963812 928.306648,60.1963812" id="Fill-109" fill="#98D7DA"></path>
                    <path d="M812.539572,60.1963812 L806.586603,60.1963812 C804.920593,60.1963812 803.569676,58.8503377 803.569676,57.1891348 C803.569676,55.5291348 804.920593,54.1830913 806.586603,54.1830913 L812.539572,54.1830913 C814.205582,54.1830913 815.557707,55.5291348 815.557707,57.1891348 C815.557707,58.8503377 814.205582,60.1963812 812.539572,60.1963812" id="Fill-111" fill="#36363D"></path>
                    <path d="M822.549276,76.1030304 L822.549276,76.1030304 C820.883266,76.1030304 819.531141,74.756987 819.531141,73.0957841 L819.531141,67.1654942 C819.531141,65.5042913 820.883266,64.1582478 822.549276,64.1582478 C824.215287,64.1582478 825.567411,65.5042913 825.567411,67.1654942 L825.567411,73.0957841 C825.567411,74.756987 824.215287,76.1030304 822.549276,76.1030304" id="Fill-113" fill="#36363D"></path>
                    <path d="M838.513156,60.1963812 L832.560188,60.1963812 C830.894177,60.1963812 829.54326,58.8503377 829.54326,57.1891348 C829.54326,55.5291348 830.894177,54.1830913 832.560188,54.1830913 L838.513156,54.1830913 C840.180374,54.1830913 841.531291,55.5291348 841.531291,57.1891348 C841.531291,58.8503377 840.180374,60.1963812 838.513156,60.1963812" id="Fill-115" fill="#36363D"></path>
                    <path d="M822.549276,50.2229087 L822.549276,50.2229087 C820.883266,50.2229087 819.531141,48.8768652 819.531141,47.2156623 L819.531141,41.2853725 C819.531141,39.6241696 820.883266,38.2781261 822.549276,38.2781261 C824.215287,38.2781261 825.567411,39.6241696 825.567411,41.2853725 L825.567411,47.2156623 C825.567411,48.8768652 824.215287,50.2229087 822.549276,50.2229087" id="Fill-117" fill="#36363D"></path>
                    <path d="M537.844041,81.8933029 L472.888953,81.8933029 C471.222942,81.8933029 469.870818,80.5472594 469.870818,78.8860565 C469.870818,77.2260565 471.222942,75.880013 472.888953,75.880013 L537.844041,75.880013 C539.510051,75.880013 540.862176,77.2260565 540.862176,78.8860565 C540.862176,80.5472594 539.510051,81.8933029 537.844041,81.8933029" id="Fill-119" fill="#98D7DA"></path>
                    <path d="M577.019792,81.8933029 L558.862693,81.8933029 C557.196683,81.8933029 555.845766,80.5472594 555.845766,78.8860565 C555.845766,77.2260565 557.196683,75.880013 558.862693,75.880013 L577.019792,75.880013 C578.685802,75.880013 580.037926,77.2260565 580.037926,78.8860565 C580.037926,80.5472594 578.685802,81.8933029 577.019792,81.8933029" id="Fill-121" fill="#98D7DA"></path>
                    <path d="M154.626768,6.15195362 L4.00977306,6.15195362 C2.34376269,6.15195362 0.992845596,4.80591014 0.992845596,3.14470725 C0.992845596,1.48470725 2.34376269,0.138663768 4.00977306,0.138663768 L154.626768,0.138663768 C156.292778,0.138663768 157.644903,1.48470725 157.644903,3.14470725 C157.644903,4.80591014 156.292778,6.15195362 154.626768,6.15195362" id="Fill-123" fill="#36363D"></path>
                </g>
                <path d="M400.965061,62 L407,62 L407,56 L400.965061,56 L400.965061,62 Z M384.871486,62 L390.906426,62 L390.906426,56 L384.871486,56 L384.871486,62 Z M368.776705,62 L374.812851,62 L374.812851,56 L368.776705,56 L368.776705,62 Z M352.68313,62 L358.71807,62 L358.71807,56 L352.68313,56 L352.68313,62 Z M336.610079,62 L342.645018,62 L342.645018,56 L336.610079,56 L336.610079,62 Z M320.516505,62 L326.530921,62 L326.530921,56 L320.516505,56 L320.516505,62 Z M304.402407,62 L310.437347,62 L310.437347,56 L304.402407,56 L304.402407,62 Z M288.329356,62 L294.364295,62 L294.364295,56 L288.329356,56 L288.329356,62 Z M272.235782,62 L278.250198,62 L278.250198,56 L272.235782,56 L272.235782,62 Z M256.121685,62 L262.156624,62 L262.156624,56 L256.121685,56 L256.121685,62 Z M240.048633,62 L246.083573,62 L246.083573,56 L240.048633,56 L240.048633,62 Z M223.955059,62 L229.969475,62 L229.969475,56 L223.955059,56 L223.955059,62 Z M207.840962,62 L213.875901,62 L213.875901,56 L207.840962,56 L207.840962,62 Z M191.76791,62 L197.80285,62 L197.80285,56 L191.76791,56 L191.76791,62 Z M175.653813,62 L181.688752,62 L181.688752,56 L175.653813,56 L175.653813,62 Z M159.560239,62 L165.615701,62 L165.615701,56 L159.560239,56 L159.560239,62 Z M143.488394,62 L149.523334,62 L149.523334,56 L143.488394,56 L143.488394,62 Z M127.374297,62 L133.409237,62 L133.409237,56 L127.374297,56 L127.374297,62 Z M111.280723,62 L117.336185,62 L117.336185,56 L111.280723,56 L111.280723,62 Z M95.2076715,62 L101.242611,62 L101.242611,56 L95.2076715,56 L95.2076715,62 Z M79.0935743,62 L85.1285138,62 L85.1285138,56 L79.0935743,56 L79.0935743,62 Z M63,62 L69.0554624,62 L69.0554624,56 L63,56 L63,62 Z" id="Fill-126" fill="#36363D"></path>
                <path d="M428.00024,108 L428.00024,108 C428.00024,106.344 429.343255,105 431.00072,105 C432.656985,105 434,106.344 434,108 C434,109.656 432.656985,111 431.00072,111 C429.343255,111 428.00024,109.656 428.00024,108 M412.00048,108 L412.00048,108 C412.00048,106.344 413.343495,105 415.00096,105 C416.657225,105 418.00024,106.344 418.00024,108 C418.00024,109.656 416.657225,111 415.00096,111 C413.343495,111 412.00048,109.656 412.00048,108 M396.00072,108 L396.00072,108 C396.00072,106.344 397.343735,105 399.0012,105 C400.657465,105 402.00048,106.344 402.00048,108 C402.00048,109.656 400.657465,111 399.0012,111 C397.343735,111 396.00072,109.656 396.00072,108 M380.00096,108 L380.00096,108 C380.00096,106.344 381.343975,105 383.00144,105 C384.657705,105 386.00072,106.344 386.00072,108 C386.00072,109.656 384.657705,111 383.00144,111 C381.343975,111 380.00096,109.656 380.00096,108 M364,108 L364,108 C364,106.344 365.343015,105 367.00048,105 L367.00168,105 C368.657945,105 370.00096,106.344 370.00096,108 C370.00096,109.656 368.657945,111 367.00168,111 L367.00048,111 C365.343015,111 364,109.656 364,108" id="Fill-127" fill="#36363D"></path>
            </g>
        </g>
    </g>
</svg>